<?xml version="1.0" encoding="UTF-8" standalone="no"?><svg xmlns="http://www.w3.org/2000/svg" xmlns:xlink="http://www.w3.org/1999/xlink" fill="#000000" height="22.8" preserveAspectRatio="xMidYMid meet" version="1" viewBox="0.0 -0.0 44.0 22.8" width="44" zoomAndPan="magnify"><defs><clipPath id="a"><path d="M 0 6 L 13 6 L 13 22.839844 L 0 22.839844 Z M 0 6"/></clipPath><clipPath id="b"><path d="M 11 15 L 21 15 L 21 22.839844 L 11 22.839844 Z M 11 15"/></clipPath><clipPath id="c"><path d="M 23 6 L 33 6 L 33 22.839844 L 23 22.839844 Z M 23 6"/></clipPath><clipPath id="d"><path d="M 33 15 L 44 15 L 44 22.839844 L 33 22.839844 Z M 33 15"/></clipPath></defs><g><g id="change1_5"><path d="M 7.773438 4.675781 L 12.363281 4.675781 C 12.640625 4.675781 12.917969 4.492188 12.964844 4.167969 L 13.660156 0.738281 C 13.753906 0.367188 13.425781 -0.00390625 13.058594 -0.00390625 L 9.164062 -0.00390625 C 8.933594 -0.00390625 8.699219 0.136719 8.609375 0.367188 L 7.171875 3.84375 C 7.03125 4.210938 7.3125 4.675781 7.773438 4.675781" fill="#545454"/></g><g clip-path="url(#a)" id="change1_4"><path d="M 11.714844 6.667969 L 6.476562 6.667969 C 6.246094 6.667969 6.011719 6.808594 5.921875 7.039062 L 0.0351562 21.960938 C -0.101562 22.378906 0.175781 22.792969 0.59375 22.792969 L 8.792969 22.792969 C 9.070312 22.792969 9.351562 22.609375 9.394531 22.285156 L 12.316406 7.410156 C 12.363281 7.039062 12.085938 6.667969 11.714844 6.667969" fill="#545454"/></g><g clip-path="url(#b)" id="change1_3"><path d="M 20.378906 15.613281 L 13.242188 15.613281 C 12.964844 15.613281 12.6875 15.796875 12.640625 16.121094 L 11.480469 22.054688 C 11.390625 22.421875 11.714844 22.792969 12.085938 22.792969 L 20.378906 22.792969 C 20.703125 22.792969 20.980469 22.515625 20.980469 22.191406 L 20.980469 16.261719 C 20.980469 15.890625 20.703125 15.613281 20.378906 15.613281" fill="#545454"/></g><g id="change1_6"><path d="M 20.378906 -0.00390625 L 16.347656 -0.00390625 C 16.070312 -0.00390625 15.789062 0.179688 15.746094 0.503906 L 13.335938 12.878906 C 13.242188 13.25 13.566406 13.621094 13.9375 13.621094 L 20.425781 13.621094 C 20.75 13.621094 21.027344 13.339844 21.027344 13.015625 L 21.027344 0.644531 C 20.980469 0.273438 20.703125 -0.00390625 20.378906 -0.00390625" fill="#545454"/></g><g id="change1_7"><path d="M 23.621094 4.675781 L 28.347656 4.675781 C 28.71875 4.675781 29.042969 4.304688 28.953125 3.933594 L 28.257812 0.503906 C 28.210938 0.226562 27.929688 -0.00390625 27.652344 -0.00390625 L 23.621094 -0.00390625 C 23.296875 -0.00390625 23.019531 0.273438 23.019531 0.597656 L 23.019531 4.027344 C 23.019531 4.398438 23.296875 4.675781 23.621094 4.675781" fill="#545454"/></g><g clip-path="url(#c)" id="change1_1"><path d="M 28.996094 6.667969 L 23.621094 6.667969 C 23.296875 6.667969 23.019531 6.945312 23.019531 7.269531 L 23.019531 22.144531 C 23.019531 22.46875 23.296875 22.75 23.621094 22.75 L 31.914062 22.75 C 32.285156 22.75 32.609375 22.378906 32.519531 22.007812 L 29.597656 7.132812 C 29.550781 6.898438 29.277344 6.667969 28.996094 6.667969" fill="#545454"/></g><g id="change1_8"><path d="M 40.347656 12.785156 L 35.484375 0.414062 C 35.390625 0.179688 35.160156 0.0429688 34.925781 0.0429688 L 30.988281 0.0429688 C 30.617188 0.0429688 30.292969 0.414062 30.386719 0.785156 L 32.84375 13.15625 C 32.890625 13.433594 33.167969 13.667969 33.445312 13.667969 L 39.792969 13.667969 C 40.210938 13.621094 40.488281 13.15625 40.347656 12.785156" fill="#545454"/></g><g clip-path="url(#d)" id="change1_2"><path d="M 43.964844 21.960938 L 41.648438 16.027344 C 41.554688 15.796875 41.324219 15.660156 41.089844 15.660156 L 34.09375 15.660156 C 33.722656 15.660156 33.398438 16.027344 33.492188 16.398438 L 34.652344 22.332031 C 34.695312 22.609375 34.972656 22.839844 35.253906 22.839844 L 43.40625 22.839844 C 43.824219 22.792969 44.101562 22.332031 43.964844 21.960938" fill="#545454"/></g></g></svg>