<?xml version="1.0" encoding="UTF-8"?><svg xmlns="http://www.w3.org/2000/svg" xmlns:xlink="http://www.w3.org/1999/xlink" height="323.3" preserveAspectRatio="xMidYMid meet" version="1.0" viewBox="-0.0 -11.6 377.8 323.3" width="377.8" zoomAndPan="magnify"><g id="change1_1"><path d="M377.546,132.299c-0.464-2.995-2.054-5.777-4.28-7.844c-0.013-0.013-0.04-0.026-0.053-0.053 c-0.875-0.808-1.829-1.497-2.875-2.041c-0.159-0.093-0.318-0.172-0.477-0.252c-1.537-0.755-3.379-1.405-5.168-1.895 c-0.702-0.199-1.405-0.371-2.067-0.504c-0.557-0.119-1.113-0.225-1.683-0.305c-2.147-0.344-4.373-0.503-6.612-0.583 c-1.471-0.04-2.928-0.053-4.386-0.066c-1.935,0-3.856,0-5.724-0.04c-0.742-0.013-1.471-0.027-2.213-0.04 c-1.484-0.04-2.981-0.053-4.466-0.067c-2.372-0.04-4.744-0.053-7.115-0.066c-1.63-0.013-3.273-0.013-4.903-0.013 c-2.703-0.013-5.406-0.026-8.123-0.04c-0.676,0-1.352-0.013-2.027-0.013c-0.461,0-0.923-0.004-1.384-0.007 c-0.177-1.79-0.381-3.577-0.63-5.359c-6.055-44.005-32.728-85.015-74.52-103.035C188.528-11.627,128.133,2.034,96.769,48.106 C84.274,66.431,77.318,87.99,77.198,109.893c-0.016,1.557,0.013,3.114,0.07,4.672c-3.056-0.244-6.114-0.489-9.16-0.723 c-1.312-0.119-2.624-0.212-3.935-0.318c-0.252-0.013-0.49-0.04-0.742-0.053c-4.399-0.331-8.798-0.609-13.211-0.808 c-1.378-0.066-2.756-0.119-4.134-0.159c-4.081-0.133-8.176-0.172-12.257-0.08c-1.524,0.04-3.048,0.093-4.585,0.159 c-0.451,0.027-0.888,0.04-1.338,0.066c-2.637,0.146-5.565,0.225-8.507,0.517c-1.603,0.146-3.22,0.358-4.783,0.676 c-5.353,1.073-10.203,3.339-12.707,8.48c-0.729,1.497-1.219,3.087-1.51,4.717c-0.265,1.418-0.398,2.849-0.398,4.28 c-0.015,2.099,0.083,4.229,0.199,6.355c0.052,0.952,0.105,1.902,0.156,2.849c0.044,0.808,0.088,1.616,0.122,2.416 c0.058,1.316,0.141,2.63,0.233,3.943c0.03,0.424,0.061,0.848,0.094,1.272c0.079,1.01,0.167,2.018,0.264,3.026 c0.063,0.656,0.13,1.313,0.2,1.969c0.084,0.794,0.172,1.588,0.266,2.381c0.087,0.74,0.179,1.48,0.273,2.219 c0.042,0.328,0.086,0.655,0.13,0.982c0.729,5.518,1.635,11.015,2.589,16.501c0.213,1.223,0.426,2.446,0.641,3.668 c0.384,2.134,0.729,4.267,1.06,6.4c0.384,2.398,0.769,4.797,1.206,7.182c0.079,0.49,0.159,0.968,0.252,1.444 c0.053,0.358,0.132,0.702,0.199,1.047c0.066,0.344,0.133,0.689,0.199,1.047h0.013c1.842,9.567,4.359,19.001,6.864,28.422 c0.08,0.292,0.159,0.583,0.238,0.875c0.318,1.166,0.623,2.332,0.928,3.498h0.013c0.079,0.318,0.172,0.636,0.252,0.954 c1.391,5.3,2.955,10.561,4.677,15.768c0.702,2.12,1.431,4.227,2.2,6.334c0.265,0.742,0.53,1.484,0.795,2.213 c2.133,5.777,4.465,11.475,7.009,17.093H31.06c0.344,0.769,0.689,1.537,1.033,2.306c0.345,0.755,0.689,1.524,1.047,2.279 c0.04,0.093,0.093,0.198,0.133,0.292c3.458,7.327,7.261,14.509,11.382,21.506c0.186,0.318,0.358,0.622,0.543,0.941 c0.106,0.172,0.212,0.344,0.331,0.503c0.212,0.344,0.437,0.663,0.676,0.954c0.119,0.159,0.252,0.318,0.384,0.477 c0.159,0.185,0.318,0.371,0.477,0.543c1.193,1.298,2.504,2.266,4.002,3.67c1.643,1.524,3.18,3.021,4.982,4.148 c1.047,0.662,2.186,1.206,3.485,1.55c0.066,0.013,0.146,0.04,0.212,0.053c3.485,0.875,7.089,1.007,10.706,0.954 c1.616-0.013,3.233-0.066,4.836-0.106c1.166-0.04,2.332-0.053,3.498-0.053c1.988,0.013,3.975,0.013,5.963,0.013 c1.643,0.013,3.286,0.026,4.929,0.013c1.365,0.013,2.729,0.013,4.094,0.013h10.388c2.478,0,4.942,0,7.42-0.013 c1.604,0.013,3.207,0.013,4.81,0c3.617,0,7.235,0,10.852-0.013h5.062c2.332,0,4.651,0,6.983-0.013c1.669,0,3.339,0,5.008-0.013 c2.862,0,5.738,0,8.6-0.013h4.823c3.922-0.013,7.857-0.013,11.78-0.026c1.696,0,3.379,0,5.075-0.014h7.38 c1.603-0.013,3.206-0.013,4.81-0.013c2.226,0,4.452-0.014,6.678,0c1.643-0.014,3.273-0.014,4.903-0.014 c3.22-0.013,6.427-0.013,9.633-0.013h4.664c3.141-0.014,6.267-0.014,9.408-0.014h7.155c3.021,0,6.042,0,9.077,0.014h5.459 c2.107,0.013,4.227,0.013,6.347,0.027c1.63,0,3.273,0,4.916,0.013c1.974,0,3.962,0.014,5.936,0.026h1.272 c1.113,0,2.226,0.013,3.339,0.013c2.836,0.013,5.658,0.027,8.494,0.053c1.537,0.013,3.087,0.013,4.638,0.027 c2.001,0.027,4.002,0.053,6.016,0.08c1.563,0.013,3.127,0.04,4.704,0.066c0.715,0.013,1.418,0.027,2.133,0.04 c1.51,0.027,3.021,0.053,4.531,0.093c0.901,0.027,1.815,0.053,2.716,0.093c0.504,0.013,1.02,0.013,1.524-0.026 c4.373-0.278,8.454-2.385,11.925-4.969c3.392-2.531,6.413-5.552,9.156-8.838c0.45-0.53,0.888-1.073,1.312-1.63 c0.437-0.543,0.848-1.113,1.272-1.67c0.384-0.504,0.769-1.02,1.14-1.551c0.093-0.106,0.159-0.212,0.238-0.318h-0.013 c2.637-3.697,5.035-7.579,7.248-11.395c0.875-1.524,1.736-3.048,2.57-4.598h0.013c0.822-1.497,1.617-3.021,2.398-4.545 c3.299-6.4,6.281-12.985,9.05-19.637c0.53-1.285,1.06-2.571,1.577-3.856c0.133-0.318,0.252-0.636,0.384-0.954 c0.808-2.041,1.617-4.094,2.398-6.161c5.737-15.066,10.574-30.476,14.668-46.072c1.232-4.704,2.372-9.421,3.419-14.165 c0.013-0.04,0.013-0.08,0.027-0.119c0.623-2.835,1.219-5.685,1.789-8.533c0.013-0.04,0.013-0.066,0.026-0.106 c0.291-1.524,0.57-3.061,0.861-4.571c-0.002,0-0.003,0-0.005,0.001c0.204-1.098,0.42-2.194,0.617-3.293 c0.113-0.63,0.224-1.26,0.334-1.891c0.408-2.324,0.801-4.65,1.176-6.98c0.047-0.293,0.098-0.586,0.144-0.88 c0.363-2.279,0.714-4.56,1.046-6.845c0.079-0.557,0.159-1.1,0.238-1.656c0.053-0.358,0.106-0.729,0.146-1.1 c0.04-0.358,0.079-0.702,0.119-1.06c0.026-0.265,0.053-0.53,0.08-0.808c0.092-0.894,0.184-1.793,0.3-2.683 c0.022-0.165,0.046-0.329,0.07-0.494c0.038-0.26,0.079-0.519,0.124-0.776c0.031-0.183,0.063-0.367,0.098-0.549 c0.08-0.412,0.167-0.821,0.27-1.223c0.186-0.702,0.397-1.285,0.596-1.868C377.479,134.724,377.758,133.73,377.546,132.299z M156.211,17.617c48.391-15.45,102.174,6.811,128.039,49.755c8.533,14.165,14.099,29.707,16.656,45.793 c0.276,1.741,0.512,3.493,0.72,5.25c-0.32,0-0.637-0.003-0.959-0.003c-2.889-0.013-5.777-0.013-8.666-0.013 c-1.617,0-3.246,0-4.863,0.013c-4.267,0-8.533,0.013-12.786,0.027c-1.603,0-3.193,0.013-4.784,0.013 c-4.717,0.013-9.447,0.04-14.165,0.053c-1.444,0.013-2.888,0.013-4.333,0.013c-4.558,0.026-9.129,0.026-13.701,0.04h-4.161 c-4.664,0-9.328-0.013-14.006-0.053h-0.013c-1.444,0-2.889-0.013-4.333-0.027c-4.055-0.027-8.096-0.066-12.151-0.119h-0.013 c-1.365-0.013-2.729-0.027-4.094-0.04c-2.478-0.04-4.942-0.066-7.42-0.106c-1.418-0.027-2.822-0.04-4.24-0.066 c-2.849-0.04-5.711-0.093-8.573-0.146c-1.365-0.013-2.743-0.039-4.108-0.066c-3.723-0.066-7.46-0.133-11.183-0.199 c-1.418-0.027-2.836-0.053-4.253-0.079c-0.013,0-0.013,0-0.027,0c-3.286-0.066-6.585-0.119-9.872-0.186 c-1.484-0.026-2.981-0.053-4.465-0.08c-3.63-0.066-7.274-0.146-10.905-0.225c-1.431-0.027-2.862-0.053-4.306-0.093 c-3.021-0.066-6.056-0.146-9.09-0.239c-1.471-0.04-2.928-0.093-4.386-0.146c-4.267-0.133-8.547-0.305-12.813-0.504 c-1.378-0.053-2.743-0.119-4.121-0.199c-3.119-0.161-6.23-0.351-9.345-0.546c-0.16-2.225-0.242-4.447-0.235-6.662 C89.389,68.286,117.056,30.112,156.211,17.617z" fill="#F99E45"/></g><g id="change2_1"><path d="M77.198,109.893c0.119-21.903,7.076-43.461,19.571-61.787c31.364-46.072,91.759-59.733,142.071-38.029 c41.792,18.021,68.465,59.031,74.52,103.035c-1.656-0.093-3.299-0.066-4.929,0.053c-0.477-0.119-0.994-0.198-1.59-0.159 l-4.956,0.305c-0.305-0.079-0.636-0.132-0.98-0.146c-2.557-16.086-8.123-31.629-16.656-45.793 c-25.865-42.945-79.648-65.205-128.039-49.755c-39.155,12.495-66.822,50.669-66.954,91.163 C85.096,108.448,81.12,108.833,77.198,109.893z M53.24,130.597c3.644-5.688,7.292-11.379,10.933-17.074 c-0.252-0.013-0.49-0.04-0.742-0.053c-4.399-0.331-8.798-0.609-13.211-0.808c-3.873,5.667-7.754,11.344-11.63,17.022 C43.473,129.997,48.356,130.303,53.24,130.597z M168.679,249.552c4.694,0.069,9.385,0.175,14.074,0.304 c0.126,1.923,0.273,3.845,0.466,5.764c0.257,2.56,3.815,1.776,3.581-0.556c-0.171-1.702-0.307-3.406-0.423-5.111 c5.897,0.182,11.791,0.414,17.682,0.699c-0.199,7.261-0.464,14.522-0.769,21.784c-10.879-0.013-21.757-0.053-32.636-0.106 C169.858,264.75,169.196,257.158,168.679,249.552z M192.697,270.818c0.521,0.493,1.71,0.307,2.078-0.327 c0.368-0.633-0.248-1.433-1.076-1.398l0.504,0.463c-0.283-0.136-0.566-0.273-0.848-0.409 C192.552,269.369,192.176,270.325,192.697,270.818z M183.254,266.573c0.787,0.037,1.597-0.06,2.363-0.286l-0.833,0.143 c0.69-0.044,1.144-0.827,0.796-1.292c-0.348-0.466-1.255-0.501-1.81-0.128C183.216,265.382,183.036,266.051,183.254,266.573z M178.646,252.349c0.661,0.631,2.239,0.17,2.447-0.691l-1.2-1.09C178.864,250.441,177.985,251.718,178.646,252.349z M178.276,259.642c0.558-0.22,1.049-0.57,1.396-0.995l-0.253-0.071c-0.047-1-0.29-1.98-0.717-2.892 c-1.047,0.249-1.896,1.088-1.991,1.968C176.616,258.532,177.283,259.38,178.276,259.642z M171.149,269.711l-0.295-0.221 c-0.036,0.594,0.797,1.042,1.475,0.793c0.678-0.248,0.918-1.089,0.425-1.489c-0.313-0.253-0.862-0.3-1.257-0.083 C171.101,268.927,170.926,269.398,171.149,269.711z M204.575,226.708c-1.79-0.109-3.58-0.219-5.37-0.328 c0.76,4.403,1.732,8.774,2.937,13.092c0.606,2.173-2.744,3.948-3.426,1.508c-1.363-4.883-2.432-9.836-3.244-14.827 c-2.965-0.182-5.929-0.364-8.895-0.544c-0.556,6.589-0.711,13.212-0.449,19.828c6.017,0.178,12.033,0.404,18.049,0.685 C204.336,239.654,204.482,233.188,204.575,226.708z M204.711,214.879c-3.149-1.856-5.618-5.329-7.446-8.768 c0.102,5.228,0.519,10.448,1.228,15.632c2.049,0.127,4.1,0.253,6.149,0.38C204.673,219.707,204.689,217.293,204.711,214.879z M224.636,223.303c7.844,0.424,15.689,0.821,23.546,1.139c1.206-8.388,2.319-16.788,3.326-25.202 c0.053-0.45,0.093-0.901,0.146-1.338c-9.858-0.104-19.726-0.13-29.587-0.05c-0.024,0.627-0.052,1.254-0.111,1.876 c-0.606,6.412-3.545,15.215-10.93,16.405c-0.738,0.119-1.45,0.14-2.14,0.09c-0.015,2.051-0.023,4.101-0.043,6.151 C214.102,222.693,219.362,223.011,224.636,223.303z M34.537,129.428l11.549-16.925c-4.081-0.133-8.176-0.172-12.257-0.08 c-4.126,5.299-8.118,10.685-12.005,16.146C26.062,128.861,30.299,129.151,34.537,129.428z M193.775,198.45 c-0.445,0.014-0.891,0.031-1.336,0.045c-0.31,0.888-0.638,1.771-0.987,2.647c-0.57,1.43-1.2,2.841-1.866,4.233 c-1.113,5.176-1.965,10.403-2.561,15.658c2.594,0.159,5.187,0.32,7.78,0.481C193.824,213.869,193.474,206.151,193.775,198.45z M14.617,113.841c-5.353,1.073-10.203,3.339-12.707,8.48c-0.729,1.497-1.219,3.087-1.51,4.717c1.669,0.125,3.34,0.24,5.009,0.363 C8.359,122.804,11.423,118.276,14.617,113.841z M295.181,194.284c0.639-4.32,1.224-8.637,1.782-12.958 c-1.336,0.004-2.672,0.008-4.008,0.012c-11.773,0.037-23.546,0.068-35.319,0.098c-0.413,4-0.84,7.996-1.292,11.986 C269.29,193.595,282.235,193.887,295.181,194.284z M252.17,193.37c0.444-3.97,0.869-7.945,1.279-11.921 c-11.802,0.03-23.603,0.059-35.405,0.099c2.226,3.525,3.459,7.61,3.879,11.782c2.159-0.02,4.318-0.043,6.475-0.052 C236.323,193.238,244.246,193.291,252.17,193.37z M17.743,128.293c3.732-5.314,7.561-10.56,11.503-15.71 c-0.451,0.027-0.888,0.04-1.338,0.066c-2.637,0.146-5.565,0.225-8.507,0.517c-3.499,4.731-6.838,9.584-10.044,14.522 C12.152,127.89,14.946,128.097,17.743,128.293z M47.067,300.977c1.193,1.298,2.504,2.266,4.002,3.67 c1.643,1.524,3.18,3.021,4.982,4.148c2.69-2.611,5.393-5.221,8.083-7.831L47.067,300.977z M22.501,249.645 c0.265,0.742,0.517,1.484,0.769,2.226c-0.769-2.107-1.497-4.214-2.2-6.334c-1.722-5.207-3.286-10.468-4.677-15.768 c-0.08-0.318-0.172-0.636-0.252-0.954c13.158-2.279,26.421-3.896,39.738-4.942c1.537,7.911,3.246,15.781,5.075,23.625 c-8.452,0.428-16.897,0.902-25.34,1.387c0.453-0.333,0.838-0.758,1.123-1.243c0.243-0.413,0.416-0.912,0.267-1.367 c-0.251-0.767-1.399-0.963-1.994-0.418c-0.594,0.545-0.598,1.551-0.135,2.211l-0.591,0.687c0.122,0.062,0.245,0.124,0.367,0.186 C30.6,249.175,26.55,249.406,22.501,249.645z M55.891,230.222c0.234,0.13,0.57,0.094,0.789-0.084 c0.02-0.146-0.007-0.294-0.076-0.421l-0.057,0.045c-0.289-0.115-0.6-0.186-0.919-0.209 C55.544,229.807,55.657,230.092,55.891,230.222z M50.495,231.794c0.142,0.038,0.293,0.03,0.427-0.022l-0.037-0.062 c0.151-0.271,0.261-0.571,0.325-0.885c-0.24-0.115-0.538-0.04-0.697,0.176C50.354,231.216,50.347,231.554,50.495,231.794z M50.095,243.637l0.224,0.05c0.221,0.996,0.601,1.956,1.123,2.833c0.826-0.336,1.379-1.245,1.298-2.133 c-0.081-0.887-0.791-1.681-1.664-1.861C50.651,242.792,50.306,243.183,50.095,243.637z M46.124,238.23 c-0.006,0.382,0.265,0.76,0.637,0.849c0.372,0.09,0.8-0.146,0.899-0.515l0.007,0.347c0.439-0.412,0.294-1.262-0.257-1.506 C46.859,237.162,46.134,237.628,46.124,238.23z M37.36,234.096c0.57,0.075,1.141-0.302,1.389-0.821 c-0.41-0.521-0.927-0.957-1.509-1.271l0.561,0.417c-0.413-0.4-1.216-0.111-1.352,0.447C36.313,233.427,36.79,234.021,37.36,234.096z M67.141,271.614c-12.031-0.133-24.036-0.278-36.068-0.437c-2.544-5.618-4.876-11.316-7.009-17.093 c12.654-0.742,25.295-1.458,37.949-2.107C63.603,258.549,65.339,265.095,67.141,271.614z M40.777,261.681 c-0.365-0.02-0.728-0.041-1.093-0.061c0.01-0.018,0.019-0.036,0.029-0.054l-0.341,0.037l0.312,0.018 c-0.171,0.321-0.342,0.642-0.513,0.963c0.139,0.571,0.885,0.895,1.397,0.607C41.081,262.902,41.192,262.097,40.777,261.681z M44.455,268.151c-0.587-0.43-1.471-0.427-2.02,0.052c-0.548,0.478-0.656,1.402-0.191,1.962l-0.546-0.371 c0.156,1.135,1.635,1.847,2.619,1.26C45.3,270.468,45.378,268.829,44.455,268.151z M47.131,264.242 c-0.247-0.329-0.787-0.337-1.176-0.077c-0.389,0.26-0.624,0.728-0.677,1.176l0.809-0.314c0.23,0.114,0.461,0.228,0.691,0.342 C47.203,265.199,47.378,264.571,47.131,264.242z M44.019,296.432c0.212,0.371,0.424,0.755,0.636,1.126 c-4.121-6.997-7.924-14.178-11.382-21.506c-0.04-0.093-0.093-0.199-0.133-0.292c11.753,0.146,23.506,0.292,35.26,0.424 c0.093,0.278,0.159,0.57,0.238,0.848c1.881,6.493,3.856,12.946,5.963,19.372C64.412,296.405,54.209,296.419,44.019,296.432z M54.133,280.251l0.047,0.34c0.003-0.104,0.006-0.208,0.008-0.312c0.326,0.162,0.652,0.323,0.978,0.485 c0.566-0.156,0.869-0.911,0.566-1.414c-0.303-0.504-1.111-0.591-1.515-0.164c-0.01,0.364-0.019,0.729-0.029,1.094L54.133,280.251z M76.085,300.95h-6.877c-3.22,3.127-6.453,6.267-9.673,9.395c0.066,0.013,0.146,0.04,0.212,0.053 c3.485,0.875,7.089,1.007,10.706,0.954c3.114-3.472,6.241-6.943,9.368-10.415C78.577,300.937,77.344,300.937,76.085,300.95z M99.751,300.911c-3.352,3.432-6.718,6.864-10.07,10.309c1.365,0.013,2.729,0.013,4.094,0.013h5.459 c3.366-3.445,6.718-6.89,10.07-10.335C106.124,300.911,102.931,300.911,99.751,300.911z M84.579,300.924 c-3.101,3.432-6.188,6.877-9.289,10.322c1.166-0.04,2.332-0.053,3.498-0.053c1.988,0.013,3.975,0.013,5.963,0.013 c3.352-3.432,6.705-6.864,10.057-10.296C91.403,300.924,87.998,300.924,84.579,300.924z M168.096,240.396 c0.079,1.55,0.199,3.1,0.291,4.651c4.713,0.068,9.424,0.171,14.133,0.295c-0.1-2.678-0.145-5.359-0.109-8.041 c0.054-3.977,0.258-7.948,0.603-11.905c-5.166-0.311-10.332-0.62-15.502-0.914C167.646,229.782,167.818,235.096,168.096,240.396z M52.115,202.5c-14.801-1.047-29.495-3.047-44.018-6.479c1.842,9.567,4.359,19.001,6.864,28.422 c13.264-2.345,26.646-3.975,40.069-5.035C53.984,213.776,53.003,208.144,52.115,202.5z M167.407,219.871 c5.361,0.303,10.722,0.626,16.083,0.951c0.264-2.284,0.56-4.563,0.918-6.833c-1.289,1.521-2.824,2.834-4.667,3.546 c-2.53,0.977-5.518,0.554-7.457-1.423c-1.777-1.811-2.464-4.418-2.593-6.888c-0.174-3.352,0.691-6.724,2.049-9.895 c-1.435,0.068-2.871,0.131-4.306,0.203C167.301,206.303,167.301,213.087,167.407,219.871z M132.452,197.001 c7.261-0.437,14.523-0.901,21.784-1.338c3.034-0.172,6.069-0.318,9.09-0.477c0.12-4.46,0.299-8.917,0.527-13.37 c-7.282,0.049-14.564,0.105-21.847,0.172c-3.224,0.029-6.448,0.067-9.673,0.101C132.31,187.057,132.348,192.027,132.452,197.001z M174.142,194.651c0.455-0.769,0.923-1.518,1.398-2.239c2.782-4.223,6.355-7.819,10.453-10.726 c-5.991,0.031-11.983,0.067-17.974,0.105c-0.214,4.39-0.378,8.781-0.492,13.169C169.731,194.849,171.936,194.751,174.142,194.651z M51.413,197.862c-0.199-1.312-0.411-2.61-0.596-3.922c-0.489-3.412-0.943-6.826-1.373-10.242 c-14.408,0.434-28.813,0.953-43.215,1.603c0.384,2.398,0.769,4.797,1.206,7.182l-0.239-1.431 C21.719,194.616,36.52,196.736,51.413,197.862z M81.836,198.909c4.426-0.013,8.865-0.093,13.29-0.199 c-0.093-1.603-0.212-3.206-0.292-4.81c-0.186-3.756-0.325-7.516-0.429-11.278c-13.563,0.245-27.126,0.554-40.687,0.946 c0.622,4.869,1.299,9.731,2.04,14.586C64.438,198.697,73.144,198.922,81.836,198.909z M128.239,197.239 c-0.105-5.033-0.128-10.07-0.09-15.107c-9.839,0.111-19.679,0.251-29.518,0.419c0.163,5.354,0.401,10.708,0.722,16.053 C108.986,198.299,118.606,197.809,128.239,197.239z M331.249,195.583c1.171-4.777,2.287-9.567,3.366-14.367 c-11.161,0.033-22.321,0.064-33.481,0.099c-0.559,4.371-1.146,8.735-1.792,13.089C309.982,194.748,320.608,195.146,331.249,195.583z M1.27,153.148c0.084,0.794,0.172,1.588,0.266,2.381C1.442,154.736,1.355,153.942,1.27,153.148z M359.559,136.245 c3.596-4.628,7.193-9.256,10.779-13.884c-0.159-0.093-0.318-0.172-0.477-0.252c-1.537-0.755-3.379-1.405-5.168-1.895 c-3.98,5.389-7.97,10.784-11.958,16.177C355.009,136.343,357.284,136.298,359.559,136.245z M0.806,148.154 c0.079,1.01,0.167,2.018,0.264,3.026C0.973,150.172,0.885,149.163,0.806,148.154z M0.712,146.882 c-0.092-1.313-0.176-2.627-0.233-3.943C0.537,144.255,0.619,145.569,0.712,146.882z M336.228,136.713 c4.571-5.987,9.148-11.967,13.717-17.956c-1.935,0-3.856,0-5.724-0.04c-0.742-0.013-1.471-0.027-2.213-0.04 c-4.872,6.056-9.743,12.112-14.615,18.167C330.338,136.803,333.284,136.763,336.228,136.713z M348.32,136.481 c4.205-5.691,8.412-11.38,12.623-17.075c-2.147-0.344-4.373-0.503-6.612-0.583c-4.542,5.941-9.076,11.875-13.615,17.812 C343.251,136.589,345.785,136.533,348.32,136.481z M4.528,175.232c0.213,1.223,0.426,2.446,0.641,3.668 C4.957,177.678,4.741,176.456,4.528,175.232z M1.809,157.749c0.042,0.328,0.086,0.655,0.13,0.982 C1.896,158.403,1.852,158.076,1.809,157.749z M376.255,138.888c0.08-0.412,0.167-0.821,0.27-1.223 C376.421,138.067,376.335,138.476,376.255,138.888z M113.77,300.897c-0.066,0.344-0.186,0.662-0.411,0.901 c-3.061,3.154-6.135,6.294-9.196,9.434c2.478,0,4.942,0,7.42-0.013c3.18-3.445,6.347-6.89,9.527-10.322H113.77z M376.034,140.213 c0.038-0.26,0.079-0.519,0.124-0.776C376.114,139.694,376.072,139.952,376.034,140.213z M372.715,162.72 c0.408-2.324,0.801-4.65,1.176-6.98C373.516,158.069,373.123,160.396,372.715,162.72z M67.367,131.424 c1.241,0.07,2.482,0.132,3.722,0.2c4.02-5.534,8.039-11.073,12.059-16.604c-1.047-0.079-2.08-0.159-3.127-0.239 c-0.918-0.073-1.834-0.144-2.752-0.217c-3.056-0.244-6.114-0.489-9.16-0.723c-3.632,5.66-7.259,11.325-10.886,16.989 C60.604,131.03,63.985,131.234,67.367,131.424z M98.836,115.988c-3.119-0.161-6.23-0.351-9.345-0.546 c-0.736-0.046-1.472-0.081-2.209-0.129c-4.006,5.509-8.007,11.025-12.008,16.538c3.998,0.217,7.995,0.439,11.994,0.643 C91.126,126.992,94.976,121.485,98.836,115.988z M237.369,118.558c-4.142,6.387-8.669,12.505-13.538,18.346 c4.097,0.055,8.194,0.094,12.292,0.136c5.273-5.942,10.282-12.112,14.947-18.522C246.512,118.545,241.941,118.545,237.369,118.558z M219.203,118.505h-0.013l-13.337,18.107c4.475,0.083,8.95,0.155,13.425,0.221c5.001-5.807,9.651-11.911,13.931-18.275 C228.545,118.558,223.88,118.545,219.203,118.505z M255.403,118.505c-4.572,6.426-9.458,12.622-14.617,18.587 c3.927,0.035,7.854,0.056,11.781,0.078c5.667-6.244,11.334-12.482,17-18.718C264.851,118.465,260.12,118.492,255.403,118.505z M274.351,118.439c-5.68,6.256-11.361,12.507-17.042,18.76c4,0.018,7.999,0.026,11.999,0.031c5.943-6.27,11.89-12.534,17.829-18.818 C282.871,118.412,278.605,118.426,274.351,118.439z M202.706,118.359h-0.013c-3.928,6.24-8.26,12.215-12.938,17.914 c3.937,0.09,7.873,0.18,11.81,0.257l13.292-18.052C210.802,118.452,206.761,118.412,202.706,118.359z M102.957,116.187 c-3.852,5.505-7.71,11.007-11.565,16.506c3.719,0.185,7.438,0.366,11.158,0.541c4.407-5.514,8.814-11.029,13.221-16.543 C111.504,116.558,107.224,116.385,102.957,116.187z M292.001,118.399c-5.934,6.285-11.879,12.557-17.822,18.834 c3.048,0,6.097,0.002,9.145-0.006c5.778-6.275,11.551-12.547,17.343-18.815C297.778,118.399,294.889,118.399,292.001,118.399z M148.923,117.472c-4.612,5.715-9.218,11.424-13.826,17.135c3.652,0.138,7.303,0.282,10.956,0.41 c4.241-5.786,8.491-11.573,12.742-17.36C155.508,117.591,152.209,117.538,148.923,117.472z M133.552,117.167 c-4.194,5.626-8.394,11.253-12.592,16.88c3.247,0.136,6.493,0.267,9.74,0.394c4.581-5.679,9.167-11.362,13.756-17.049 C140.827,117.326,137.183,117.247,133.552,117.167z M120.156,116.836l-13.27,16.604c3.275,0.15,6.551,0.283,9.827,0.424 c4.174-5.597,8.348-11.193,12.532-16.79C126.225,117.008,123.191,116.929,120.156,116.836z M178.365,118.002 c-3.807,5.891-7.602,11.789-11.398,17.683c2.495,0.073,4.99,0.135,7.485,0.203c4.165-5.92,8.32-11.831,12.486-17.74 C184.09,118.108,181.227,118.055,178.365,118.002z M163.074,117.737c-4.256,5.802-8.516,11.608-12.78,17.418 c4.201,0.142,8.401,0.282,12.602,0.409c3.791-5.876,7.582-11.752,11.361-17.628C170.534,117.869,166.798,117.803,163.074,117.737z M191.179,118.214c-4.173,5.933-8.346,11.862-12.519,17.788c2.198,0.057,4.396,0.12,6.594,0.173 c4.821-5.664,9.305-11.606,13.345-17.855C196.121,118.28,193.656,118.254,191.179,118.214z M244.379,248.757 c1.1-6.572,2.16-13.158,3.14-19.756c-10.574-0.437-21.134-0.994-31.695-1.617c-2.359-0.132-4.704-0.278-7.049-0.424 c-0.08,5.592-0.172,11.17-0.318,16.762c-0.027,0.861-0.053,1.736-0.08,2.597c6.44,0.331,12.866,0.729,19.293,1.179 C233.222,247.896,238.787,248.333,244.379,248.757z M105.077,250.188c8.891-0.278,17.782-0.477,26.686-0.61 c0.848,7.553,1.855,15.079,3.008,22.592c-5.794-0.036-11.597-0.092-17.399-0.144c0.036-0.443-0.059-0.897-0.293-1.275 c-0.47-0.757-1.459-1.15-2.321-0.92c-0.26,0.427-0.394,0.932-0.38,1.433l0.222-0.056c0.233,0.287,0.5,0.543,0.764,0.801 c-2.088-0.019-4.172-0.032-6.26-0.052C107.608,264.737,106.256,257.476,105.077,250.188z M121.128,261.671 c0.386,0.319,0.866,0.524,1.363,0.582l-0.023-0.228c0.683-0.408,1.295-0.922,1.858-1.485c0.2,0.32,0.443,0.612,0.722,0.865 c0.354,0.323,0.807,0.594,1.283,0.542c0.802-0.089,1.229-1.172,0.818-1.866c-0.411-0.694-1.395-0.902-2.136-0.586l-0.551-0.719 c-0.189,0.237-0.379,0.473-0.568,0.71c-0.494-0.17-1.041-0.188-1.521,0.021C121.556,259.863,121.025,260.786,121.128,261.671z M118.045,264.456c0.111,0.619,0.733,1,1.317,1.236l-0.154-0.383c0.822-0.107,1.152-1.39,0.483-1.879 C119.023,262.939,117.899,263.64,118.045,264.456z M111.903,251.39c0.099,0.249,0.382,0.435,0.664,0.436 c0.108-0.101,0.181-0.232,0.208-0.374l-0.073-0.001c-0.15-0.272-0.347-0.524-0.579-0.744 C111.898,250.85,111.805,251.142,111.903,251.39z M110.206,253.351l0.399,0.106c-0.406,0.723,0.425,1.754,1.218,1.511 c0.793-0.243,0.903-1.563,0.161-1.934C111.421,252.753,110.744,253.025,110.206,253.351z M108.718,256.771l0.042,0.077 c-0.198,0.319-0.347,0.675-0.442,1.051c0.284,0.152,0.647,0.078,0.851-0.173c0.204-0.251,0.232-0.66,0.066-0.958 C109.066,256.714,108.883,256.715,108.718,256.771z M371.769,167.903c-0.292,1.51-0.57,3.047-0.861,4.571 c0.517-2.618,1.002-5.24,1.473-7.864c-0.198,1.099-0.413,2.195-0.619,3.293C371.764,167.903,371.766,167.903,371.769,167.903z M370.88,172.58C370.88,172.58,370.881,172.58,370.88,172.58c-0.57,2.849-1.166,5.698-1.789,8.533 C369.72,178.275,370.314,175.43,370.88,172.58z M374.035,154.859c0.363-2.279,0.714-4.56,1.046-6.845 c-0.004,0.001-0.008,0.001-0.012,0.001C374.735,150.299,374.397,152.581,374.035,154.859z M291.02,256.005 c-1.259-0.027-2.518-0.08-3.776-0.119c-1.378,5.525-2.836,11.011-4.346,16.497c8.123-0.027,16.245-0.067,24.368-0.106 c2.067-5.459,4.094-10.932,6.016-16.431C305.874,256.124,298.441,256.164,291.02,256.005z M101.314,222.216 c9.355,0,18.71,0.185,28.051,0.49c0.49,7.46,1.126,14.92,1.908,22.367c-8.971,0.132-17.954,0.331-26.925,0.609 c-0.411-2.703-0.808-5.406-1.179-8.109c-0.297-2.199-0.575-4.405-0.847-6.612l0.141-0.095c0.876,0.522,1.836,0.904,2.832,1.126 c0.322-0.831,0.04-1.857-0.661-2.407c-0.7-0.548-1.76-0.577-2.49-0.069C101.851,227.085,101.572,224.65,101.314,222.216z M118.006,228.594l0.336-0.132c0.825,0.415,1.943-0.423,1.815-1.337c-0.128-0.914-1.372-1.428-2.132-0.905 C117.265,226.744,117.268,228.039,118.006,228.594z M116.705,225.769c0.348-0.271,0.697-0.541,1.045-0.811l-2.052-0.731 C115.458,224.896,115.996,225.719,116.705,225.769z M112.17,232.408c0.21,0.298,0.421,0.596,0.631,0.894l-0.061,0.011l0.241,0.245 c-0.06-0.085-0.12-0.171-0.18-0.256c0.358-0.065,0.716-0.13,1.074-0.196c0.361-0.464,0.151-1.25-0.392-1.473 C112.938,231.411,112.237,231.824,112.17,232.408z M110.007,241.171c0.555,0.141,1.162-0.411,1.075-0.977 c-0.056-0.36-0.369-0.671-0.732-0.696c-0.363-0.025-0.728,0.263-0.761,0.626l-0.062-0.325 C109.181,240.256,109.452,241.03,110.007,241.171z M106.688,235.222l0.569-0.407c-0.507,0.271-0.479,1.124,0.011,1.424 c0.49,0.3,1.202,0.029,1.448-0.491c0.246-0.52,0.062-1.179-0.355-1.574C107.74,234.404,107.167,234.763,106.688,235.222z M375.664,143.39c0.092-0.894,0.184-1.793,0.3-2.683c-0.118,0.89-0.21,1.789-0.301,2.683 C375.663,143.39,375.664,143.39,375.664,143.39z M293.114,229.822c-0.901,4.452-1.842,8.904-2.849,13.33 c-0.623,2.769-1.299,5.512-1.961,8.255c8.851,0.265,17.702,0.278,26.514-0.093c2.544-7.434,4.982-14.907,7.261-22.42 C312.433,229.438,302.774,229.729,293.114,229.822z M142.125,223.171c7.063,0.305,14.125,0.676,21.187,1.073 c0.028,1.329,0.068,2.657,0.108,3.986c-0.058-0.344-0.264-0.667-0.598-0.779c-0.335,0.145-0.67,0.29-1.004,0.434 c0-0.021,0.001-0.041,0.001-0.062l-0.289,0.186l0.287-0.124l-0.028,1.091c0.38,0.449,1.192,0.405,1.521-0.082 c0.069-0.102,0.098-0.22,0.118-0.338c0.116,3.75,0.272,7.499,0.463,11.249c-0.291,0.175-0.492,0.464-0.447,0.713 c0.04,0.225,0.246,0.385,0.512,0.475c0.07,1.334,0.141,2.667,0.217,4.001c-9.554-0.093-19.094-0.093-28.634,0.013 c-0.093-0.781-0.199-1.577-0.278-2.358c-0.676-6.599-1.219-13.198-1.656-19.809C136.441,222.945,139.29,223.051,142.125,223.171z M138.166,231.978c-0.332-0.148-0.774-0.003-0.93,0.326l0.053-0.326c-0.482,0.309-0.494,1.13-0.021,1.453 c0.473,0.323,1.233,0.013,1.346-0.548C138.686,232.527,138.499,232.126,138.166,231.978z M160.656,240.498 c-0.318,0.18-0.611,0.402-0.864,0.657c0.183,0.202,0.538,0.259,0.831,0.132c0.293-0.126,0.502-0.426,0.489-0.702 c-0.126-0.094-0.287-0.149-0.459-0.158L160.656,240.498z M155.71,239.983c-0.036,0.601,0.653,1.12,1.22,0.918 c0.128-0.045,0.234-0.13,0.328-0.228c0.118,0.242,0.242,0.481,0.398,0.7l-0.32-0.621c0.194,0.541,1.043,0.635,1.411,0.194 c0.368-0.442,0.202-1.185-0.277-1.504c-0.147-0.098-0.314-0.145-0.486-0.17c-0.001-0.018,0.006-0.034,0.004-0.052 c-0.046-0.38-0.415-0.699-0.796-0.663l0.323-0.128c-0.539-0.268-1.285,0.164-1.322,0.765c-0.001,0.025,0.015,0.047,0.016,0.072 C155.938,239.413,155.729,239.673,155.71,239.983z M150.836,230.437l0.72,0.485c0.038,0.254,0.077,0.508,0.115,0.762 c0.382,0.251,0.996,0.037,1.125-0.354c0.129-0.391-0.173-0.838-0.609-1.008C151.753,230.151,151.233,230.224,150.836,230.437z M142.314,225.946c0.095,0.352,0.19,0.704,0.285,1.056l-0.061-0.01l0.142,0.312c-0.027-0.101-0.054-0.201-0.081-0.302 c0.358,0.062,0.717,0.123,1.076,0.185c0.498-0.312,0.572-1.122,0.138-1.518L142.314,225.946z M129.087,218.122 c-0.305-5.446-0.557-10.892-0.716-16.351c-9.567,0.556-19.147,1.047-28.74,1.352c0.331,4.863,0.755,9.712,1.233,14.549 C110.271,217.671,119.679,217.83,129.087,218.122z M150.924,218.997c4.094,0.199,8.189,0.424,12.283,0.649 c-0.093-6.638-0.093-13.277,0.026-19.915c-6.4,0.331-12.8,0.702-19.213,1.1c-3.803,0.225-7.619,0.464-11.435,0.689 c0.159,5.579,0.424,11.157,0.742,16.735C139.197,218.466,145.067,218.705,150.924,218.997z M208.81,181.587 c0.046,3.972,0.077,7.944,0.097,11.916c3.122-0.057,6.247-0.104,9.372-0.142c-0.581-4.333-2.217-8.518-5.091-11.793 C211.729,181.573,210.27,181.581,208.81,181.587z M208.934,198.061c0.015,4.747,0.003,9.499-0.022,14.252 c1.001,0.169,2.053,0.078,3.151-0.37c4.976-2.033,6.322-9.036,6.458-14.061c-0.276,0.003-0.552,0.004-0.828,0.007 C214.764,197.915,211.849,197.995,208.934,198.061z M204.612,181.605c-1.86,0.009-3.72,0.016-5.581,0.024 c-0.668,4.035-1.144,8.094-1.441,12.164c2.381-0.066,4.762-0.132,7.143-0.185C204.707,189.607,204.666,185.605,204.612,181.605z M192.061,184.091c0.032-0.811,0.082-1.623,0.153-2.432c-0.167,0.001-0.334,0.002-0.501,0.002c-0.193,0.565-0.63,1.045-1.173,1.357 c-4.86,2.793-9.052,6.777-12.162,11.445c3.486-0.147,6.973-0.278,10.46-0.397C189.806,190.709,190.88,187.382,192.061,184.091z M197.913,198.326c0.25,0.7,0.514,1.397,0.806,2.083c1.128,2.657,3.229,6.937,6.038,9.6c0.023-3.957,0.03-7.913,0.016-11.869 C202.486,198.194,200.2,198.26,197.913,198.326z M173.303,209.111c0.143,1.725,0.726,3.727,2.342,4.621 c2.31,1.278,4.677-0.437,6.172-2.15c1.871-2.144,3.198-4.776,4.434-7.33c0.412-1.872,0.864-3.735,1.342-5.592 c-3.978,0.145-7.955,0.306-11.931,0.484C174.124,202.277,173.023,205.727,173.303,209.111z M239.251,276.994 c-0.504,2.597-0.994,5.194-1.524,7.804c-0.768,3.816-1.563,7.632-2.398,11.435h-14.761c-4.77,0-9.527,0.013-14.297,0.013 c0.371-6.4,0.676-12.813,0.967-19.24C217.905,277.033,228.584,276.994,239.251,276.994z M230.312,282.435 c0.319,0.494,1.28,0.572,1.799,0.147c0.043-0.36,0.086-0.72,0.128-1.08c0.021,0.009,0.042,0.018,0.064,0.027l-0.027-0.335 l-0.037,0.308c-0.377-0.156-0.753-0.312-1.129-0.469C230.419,281.193,229.993,281.941,230.312,282.435z M227.833,287.948 c-0.148,0.232-0.296,0.463-0.444,0.695c0.182,0.412,0.925,0.561,1.333,0.304c0.408-0.256,0.444-0.789,0.151-1.162 s-0.842-0.587-1.375-0.622L227.833,287.948z M224.207,284.468c-0.546-0.522-1.648-0.593-2.343-0.113l0.472-0.553 c-1.369,0.197-2.296,1.683-1.642,2.631c0.653,0.948,2.615,0.962,3.474,0.025C224.713,285.863,224.753,284.991,224.207,284.468z M105.687,276.53c1.418,6.638,2.941,13.25,4.624,19.823c-3.657,0-7.314,0.027-10.958,0.027c-6.718,0-13.436,0.013-20.167,0.013 c-2.199-6.691-4.267-13.409-6.228-20.167C83.863,276.331,94.782,276.437,105.687,276.53z M95.475,291.515l-0.218-0.071 c-0.093-0.746-0.302-1.469-0.565-2.174c0.113-0.126,0.226-0.253,0.339-0.379l-0.214-0.476l-1.694-0.074 c-0.179,0.357-0.091,0.768,0.131,1.1c-0.204,0.325-0.341,0.694-0.342,1.078c-0.003,0.891,0.629,1.749,1.481,2.01 C94.841,292.304,95.221,291.947,95.475,291.515z M203.053,278.316c-0.001,0.023-0.002,0.046-0.003,0.069 c-0.278,5.963-0.583,11.912-0.941,17.861c-9.461,0.013-18.935,0.04-28.396,0.04c-0.737-4.915-1.376-9.847-1.97-14.781 c0.007-0.005,0.015-0.009,0.022-0.014c-0.007-0.011-0.019-0.018-0.027-0.029c-0.184-1.53-0.383-3.059-0.555-4.589 c1.008,0.005,2.016,0.009,3.024,0.014c0.087,0.175,0.188,0.346,0.318,0.505c0.253-0.086,0.421-0.287,0.449-0.501 c8.823,0.043,17.646,0.082,26.469,0.097c-0.151,0.165-0.254,0.354-0.261,0.557l0.606-0.453c-0.189,0.244-0.379,0.489-0.568,0.733 C201.409,278.424,202.397,278.66,203.053,278.316z M185.609,280.17c-0.245-0.525-1.179-0.696-1.75-0.318 c-0.092,0.356-0.185,0.713-0.277,1.07c-0.02-0.011-0.039-0.022-0.059-0.032l-0.02,0.338c0.026-0.102,0.053-0.204,0.079-0.306 c0.348,0.192,0.697,0.385,1.045,0.578C185.33,281.406,185.854,280.696,185.609,280.17z M73.581,271.68 c-0.636,0-1.285-0.013-1.921-0.013c-1.29-4.566-2.509-9.144-3.694-13.731c0.523,0.291,1.341-0.071,1.442-0.699 c0.112-0.693-0.663-1.327-1.323-1.103c-0.201,0.068-0.361,0.207-0.484,0.377c-0.404-1.582-0.824-3.159-1.215-4.745 c11.462-0.557,22.937-1.047,34.411-1.431c1.127,7.077,2.397,14.116,3.816,21.13l-0.102,0.009c-0.099,0.131-0.13,0.293-0.134,0.457 C94.112,271.839,83.847,271.785,73.581,271.68z M100.222,267.16l0.115-0.291c0.25,0.264,0.501,0.527,0.752,0.791 c0.586,0.049,1.129-0.557,1.018-1.134c-0.111-0.577-0.84-0.937-1.366-0.675l-0.403,1.017c-0.014-0.015-0.028-0.03-0.042-0.045 L100.222,267.16z M93.221,256.951c0.318,0.306,0.636,0.612,0.953,0.917c-0.023,0.009-0.046,0.018-0.069,0.027l0.342,0.235 l-0.272-0.262c0.41-0.16,0.82-0.319,1.23-0.479c0.323-0.633-0.106-1.518-0.802-1.658C93.906,255.592,93.169,256.242,93.221,256.951z M92.393,260.6c-0.172,0.259-0.305,0.549-0.393,0.856c0.231,0.134,0.533,0.082,0.708-0.12c0.175-0.202,0.21-0.539,0.08-0.789 c-0.139-0.049-0.289-0.054-0.428-0.012L92.393,260.6z M81.908,253.37l0.395-0.577c-0.384,0.428-0.063,1.219,0.5,1.333 c0.564,0.114,1.139-0.386,1.191-0.959c0.052-0.572-0.347-1.128-0.875-1.355C82.614,252.241,82.2,252.775,81.908,253.37z M81.866,266.011l0.879,0.647c0.585-0.056,1.013-0.747,0.803-1.295c-0.211-0.549-0.992-0.775-1.464-0.424 C82.012,265.296,81.939,265.653,81.866,266.011z M77.219,265.546l0.326-0.804l0.723-0.269c0.168-0.425-0.168-0.982-0.578-1.029 c-0.409-0.046-0.785,0.342-0.862,0.803S76.93,265.201,77.219,265.546z M73.558,254.797l0.117-0.023 c0.701-0.403,0.592-1.655-0.169-1.929c-0.428-0.154-0.888,0.066-1.164,0.419c-0.327-0.471-0.995-0.747-1.522-0.47 c-0.778,0.41-0.81,1.7-0.083,2.195l-0.208-0.669c0.338,0.691,1.471,0.615,1.872,0.008L73.558,254.797z M298.56,225.237 c8.308-0.133,16.603-0.45,24.898-0.954c2.372-8.016,4.611-16.086,6.665-24.182c-10.481-0.437-20.975-0.821-31.457-1.166 c-1.365,8.811-2.928,17.596-4.651,26.342C295.539,225.264,297.049,225.264,298.56,225.237z M166.864,276.861 c0.729,6.492,1.59,12.972,2.544,19.438c-8.666,0-17.318,0.013-25.984,0.026c-0.542-2.682-1.045-5.374-1.541-8.067 c0.221-0.007,0.443-0.067,0.621-0.186c0.369-0.248,0.484-0.727,0.221-1.017l0.324,0.193c-0.038-0.562-0.852-0.918-1.49-0.685 c-0.59-3.262-1.15-6.529-1.686-9.795c5.292,0.031,10.584,0.048,15.877,0.063c0.005,0.112,0.011,0.225,0.016,0.337 c-0.023-0.009-0.046-0.019-0.069-0.028l0.088,0.405l-0.018-0.377c0.408,0.165,0.815,0.33,1.223,0.495 c0.359-0.128,0.605-0.459,0.697-0.827C160.746,276.844,163.805,276.852,166.864,276.861z M147.907,286.079 c0.848-0.236,1.217-1.2,0.8-1.803c-0.602,0.033-1.204,0.067-1.806,0.1l-0.262,0.483 C146.153,285.489,147.059,286.315,147.907,286.079z M150.126,290.333l-0.839,0.039c0.682,0.042,1.269-0.686,1.015-1.194 c-0.254-0.509-1.133-0.657-1.743-0.353s-0.909,0.951-0.792,1.501C148.528,290.461,149.337,290.463,150.126,290.333z M150.253,293.013c0.188-0.247,0.341-0.528,0.449-0.83c-0.222-0.148-0.527-0.116-0.715,0.074c-0.188,0.19-0.245,0.524-0.132,0.782 c0.136,0.058,0.285,0.072,0.426,0.04L150.253,293.013z M153.306,277.46c-0.15-0.096-0.326-0.143-0.5-0.132l0.02,0.086 c-0.273,0.257-0.51,0.562-0.699,0.9c0.235,0.221,0.605,0.244,0.867,0.054C153.255,278.177,153.389,277.79,153.306,277.46z M158.546,281.303c0.353-0.307,0.277-0.83-0.094-1.15c-0.371-0.321-0.965-0.45-1.505-0.408l0.502,0.715 c-0.099,0.246-0.198,0.492-0.297,0.738C157.42,281.572,158.193,281.61,158.546,281.303z M160.136,290.847 c-0.336-0.471-1.108-0.65-1.785-0.497c-0.209,0.643-0.258,1.31-0.145,1.947l0.001-0.688c-0.09,0.567,0.763,0.975,1.398,0.713 C160.24,292.059,160.472,291.319,160.136,290.847z M160.137,287.631c-0.786-0.281-1.74,0.456-1.667,1.287l0.079,0.34 c0.299,0.779,1.48,1.022,2.063,0.425C161.194,289.086,160.923,287.912,160.137,287.631z M163.267,284.768 c-0.333-0.503-1.362-0.525-1.822-0.038c-0.292,0.309-0.323,0.768-0.042,1.046c0.281,0.279,0.859,0.324,1.228,0.077l-0.253,0.288 C163.098,286.046,163.6,285.271,163.267,284.768z M164.293,280.541c-0.808,0.23-1.223,1.167-0.782,1.711l0.324-0.03 c0.559,0.46,1.769,0.072,1.957-0.614C165.979,280.923,165.1,280.309,164.293,280.541z M294.505,198.79 c-0.252,0-0.517-0.013-0.768-0.026c-12.641-0.371-25.295-0.676-37.936-0.835c-1.047,8.904-2.213,17.809-3.472,26.686 c12.482,0.477,24.977,0.755,37.472,0.703C291.55,216.505,293.127,207.668,294.505,198.79z M135.885,279.074 c0.98,5.764,2.041,11.515,3.167,17.252c-8.096,0.013-16.179,0.013-24.275,0.027c-1.709-6.559-3.246-13.157-4.677-19.796 c8.467,0.066,16.934,0.133,25.414,0.186C135.633,277.524,135.752,278.292,135.885,279.074z M128.342,285.442 c0.08-0.876-1.119-1.529-1.842-1.028c-0.723,0.501-0.598,1.786,0.183,2.188l-0.287-0.639 C126.875,286.702,128.262,286.318,128.342,285.442z M133.645,277.734c-0.094-0.244-0.402-0.389-0.721-0.34 c-0.32,0.05-0.625,0.29-0.716,0.563c0.082,0.123,0.211,0.218,0.367,0.271l0.025-0.07 C132.962,278.062,133.317,277.918,133.645,277.734z M135.338,290.832c-0.43,0.324-0.65,0.822-0.654,1.265l0.924-0.455 c0.29,0.067,0.58,0.135,0.87,0.202c0.484-0.243,0.611-0.884,0.273-1.157C136.413,290.414,135.768,290.507,135.338,290.832z M158.24,272.28c-6.372-0.025-12.745-0.046-19.109-0.083c-0.112-0.715-0.216-1.432-0.325-2.148c0.029,0.004,0.058,0.008,0.088,0.011 c-0.015,0.017-0.031,0.033-0.046,0.051l0.411-0.003l-0.365-0.048c0.271-0.299,0.542-0.597,0.813-0.896 c-0.034-0.472-0.589-0.814-1.155-0.794c-0.329-2.205-0.648-4.412-0.951-6.622c0.095-0.007,0.19-0.015,0.283-0.037 c0.282,0.369,0.64,0.681,1.075,0.845c1.008,0.382,2.246,0.031,2.904-0.822c-0.065-0.602-0.307-1.184-0.689-1.655l-0.172,0.217 c-0.884-0.211-1.792-0.282-2.701-0.283c-0.095-0.181-0.19-0.364-0.286-0.546l-0.629,0.04l-0.067,0.157 c-0.18-1.351-0.358-2.702-0.529-4.054c0.054,0.027,0.107,0.055,0.161,0.082c0.807-0.207,1.21-1.157,0.704-1.661 c-0.254-0.253-0.681-0.337-1.092-0.28c-0.172-1.404-0.345-2.809-0.508-4.213c3.313-0.04,6.625-0.106,9.925-0.119 c0.349-0.001,0.698,0.001,1.048,0c0.044,0.521,0.137,1.037,0.286,1.538c0.969-0.132,1.842-0.769,2.162-1.538 c4.983-0.006,9.965,0.013,14.948,0.067c0.49,7.619,1.166,15.238,1.961,22.831c-2.231-0.01-4.458-0.021-6.689-0.029l0.108-0.398 c-0.318-0.346-1.098-0.316-1.413,0.017C158.289,272.016,158.251,272.146,158.24,272.28z M164.926,270.29 c-0.011,0.264,0.21,0.528,0.519,0.62c0.167-0.059,0.311-0.158,0.409-0.282l-0.079-0.024c-0.034-0.302-0.128-0.601-0.277-0.881 C165.181,269.784,164.938,270.026,164.926,270.29z M141.398,265.812c0.476,0.147,1.01-0.229,1.206-0.759 c0.196-0.53,0.094-1.156-0.172-1.631l-0.569,0.882c-0.307,0.052-0.613,0.104-0.919,0.156 C140.648,264.927,140.922,265.665,141.398,265.812z M142.6,267.393c-0.323-0.633-1.291-0.806-1.813-0.325l-0.126,1.317 c-0.021-0.012-0.043-0.025-0.064-0.038l0.028,0.414c0.012-0.125,0.024-0.25,0.036-0.376c0.38,0.222,0.76,0.445,1.139,0.667 C142.495,268.911,142.923,268.026,142.6,267.393z M143.057,251.644c-0.438,0.017-0.875,0.033-1.312,0.05l-0.592,0.997 c0.181,0.546,1.085,0.79,1.692,0.456S143.566,252.011,143.057,251.644z M146.876,254.306c-0.556-0.699-2.175-0.395-2.508,0.449 c-0.332,0.844,0.715,1.71,1.755,1.496l-0.737-0.283C146.379,256.197,147.432,255.005,146.876,254.306z M151.155,260.719 l-1.035-0.027l-0.544-0.578c-0.546-0.01-1.081,0.491-1.003,0.886c0.079,0.395,0.648,0.61,1.206,0.524 C150.338,261.439,150.85,261.105,151.155,260.719z M156.043,262.92c-0.042-0.259-0.317-0.485-0.645-0.532 c-0.155,0.081-0.278,0.197-0.351,0.331l0.084,0.012c0.096,0.289,0.25,0.566,0.456,0.819 C155.891,263.446,156.085,263.178,156.043,262.92z M157.48,256.346c-0.506-0.504-1.698-0.34-2.083,0.287 c-0.385,0.626,0.207,1.44,1.034,1.421l-0.49-0.473c0.278,0.141,0.557,0.283,0.835,0.426 C157.584,257.8,157.986,256.85,157.48,256.346z M256.203,276.973l-0.632,0.284c-0.034-0.095-0.068-0.189-0.103-0.284 c-1.259,0-2.518,0.001-3.776,0.002c0.036,0.53-0.292,1.105-0.919,1.291c-0.357,0.106-0.727,0.074-1.077-0.018 c-0.021,0.218-0.095,0.433-0.293,0.595c-0.558,0.455-1.614,0.295-1.845-0.279c-0.165-0.41,0.149-0.891,0.61-1.131 c-0.169-0.141-0.323-0.294-0.464-0.455c-1.409,0.001-2.818,0.001-4.227,0.002c-1.259,6.44-2.557,12.866-3.935,19.266 c10.68,0.013,21.36,0.04,32.039-0.053c2.027-6.4,3.962-12.8,5.804-19.252C270.325,276.965,263.264,276.97,256.203,276.973z M218.66,272.488c-3.737-0.013-7.473-0.04-11.21-0.04c0.305-7.195,0.583-14.39,0.795-21.572c4.214,0.212,8.414,0.464,12.628,0.742 c7.579,0.504,15.158,1.087,22.738,1.67c-1.1,6.4-2.266,12.8-3.485,19.187C232.97,272.475,225.815,272.488,218.66,272.488z M240.07,257.574c0.755-0.2,1.07-1.091,0.56-1.53l-1.851,0.492C238.508,257.135,239.316,257.774,240.07,257.574z M234.934,267.361 l0.96-0.073l0.584,0.471c0.506-0.042,0.93-0.547,0.802-0.897c-0.128-0.35-0.684-0.491-1.188-0.361 C235.588,266.632,235.162,266.983,234.934,267.361z M222.423,256.349c0.601-0.035,1.203-0.216,1.711-0.513l-0.194-0.146 c0.311-0.715,0.486-1.454,0.592-2.195c0.19-0.072,0.381-0.145,0.571-0.217l0.034-0.514c0.183-0.714-1.058-1.181-1.766-0.711 c-0.388,0.258-0.519,0.665-0.466,1.052c-0.396,0.219-0.744,0.501-0.957,0.852C221.455,254.766,221.657,255.786,222.423,256.349z M217.289,255.312l-1.284-0.142c0.015-0.017,0.03-0.034,0.045-0.051l-0.411,0.01c0.122,0.013,0.245,0.027,0.367,0.041 c-0.263,0.303-0.526,0.606-0.789,0.91c0.058,0.572,0.882,0.947,1.543,0.702C217.42,256.537,217.702,255.753,217.289,255.312z M219.065,256.854c0.5,0.175,1.129,0.111,1.628-0.092l-0.803-0.49c-0.016-0.251-0.032-0.503-0.048-0.754 c-0.426-0.255-1.185-0.053-1.385,0.331C218.256,256.232,218.565,256.678,219.065,256.854z M68.244,218.41 c0.13,0.003,0.254,0.034,0.371,0.079c2.941-0.157,5.881-0.29,8.822-0.394c3.975-0.148,7.95-0.242,11.925-0.312 c0.065-0.344,0.285-0.636,0.598-0.686c0.355-0.057,0.741,0.279,0.806,0.667c1.944-0.03,3.887-0.067,5.831-0.08 c-0.464-4.81-0.875-9.62-1.206-14.443c-12.985,0.331-25.984,0.278-38.916-0.464c0.874,5.433,1.828,10.865,2.835,16.285 c2.771-0.194,5.542-0.364,8.314-0.516C67.82,218.46,68.031,218.405,68.244,218.41z M377.546,132.299 c-0.464-2.995-2.054-5.777-4.28-7.844c-0.013-0.013-0.04-0.026-0.053-0.053c-3.029,3.909-6.068,7.819-9.105,11.727 c4.338-0.106,8.676-0.21,13.014-0.332C377.479,134.724,377.758,133.73,377.546,132.299z M284.104,251.275 c-11.872-0.45-23.745-1.299-35.551-2.199c0.079-0.53,0.172-1.047,0.265-1.577c1.007-6.108,1.948-12.217,2.836-18.338 c12.416,0.477,24.818,0.742,37.234,0.702C287.416,237.03,285.813,244.159,284.104,251.275z M260.557,246.61l-0.261,0.608 c0.29-0.478-0.267-1.057-0.896-0.988c-0.629,0.069-1.102,0.665-1.001,1.167c0.102,0.503,0.677,0.858,1.299,0.896 C260.116,247.78,260.41,247.202,260.557,246.61z M281.639,276.941c-1.828,6.426-3.75,12.826-5.764,19.2 c1.524-0.013,3.021-0.04,4.545-0.066c5.83-0.066,11.687-0.239,17.517-0.57c1.815-4.24,3.564-8.507,5.274-12.787 c0.795-1.948,1.524-3.922,2.292-5.896c-7.765,0.04-15.543,0.093-23.308,0.119H281.639z M244.339,272.475 c1.206-6.281,2.345-12.575,3.432-18.869c6.138,0.457,12.276,0.896,18.416,1.279c-0.498,0.248-0.835,0.776-0.749,1.243 c0.514,0.125,1.029,0.249,1.543,0.373l0.401-0.36c0.458-0.307,0.36-0.879-0.02-1.189c1.295,0.079,2.59,0.153,3.885,0.226 c0.021,0.431,0.511,0.807,1.052,0.75c0.006-0.229,0.014-0.458,0.021-0.688c3.56,0.196,7.12,0.375,10.682,0.511 c-1.378,5.565-2.849,11.117-4.373,16.643C267.209,272.435,255.774,272.462,244.339,272.475z M248.975,267.095 c0.125,0.503,0.881,0.759,1.488,0.561c0.606-0.198,1.003-0.752,1.009-1.274c-0.654-0.227-1.377-0.339-2.108-0.326l0.758,0.078 C249.52,266.002,248.849,266.592,248.975,267.095z M79.451,246.61c-4.717,0.212-9.434,0.45-14.151,0.676 c-0.409-1.701-0.794-3.411-1.182-5.12c0.101,0.092,0.192,0.197,0.307,0.272l0.081-0.214c0.75-0.056,1.483-0.228,2.2-0.456 c0.121,0.119,0.241,0.238,0.362,0.358l0.486-0.189c0.713-0.156,0.794-1.329,0.159-1.688c-0.348-0.197-0.762-0.13-1.105,0.074 c-0.315-0.219-0.675-0.375-1.059-0.395c-0.671-0.036-1.34,0.29-1.759,0.811c-0.069-0.305-0.143-0.609-0.211-0.914 c-0.063-0.28-0.12-0.561-0.182-0.841c0.037-0.019,0.074-0.038,0.111-0.057c0.074-0.283-0.073-0.581-0.29-0.768 c-1.077-4.857-2.093-9.731-3.044-14.618c2.73-0.186,5.473-0.358,8.215-0.504c9.54-0.517,19.107-0.755,28.66-0.821 c0.822,7.897,1.855,15.768,3.034,23.599c-0.663,0.023-1.326,0.053-1.989,0.077c-0.218-0.153-0.457-0.276-0.727-0.323 c-0.544-0.095-1.082,0.083-1.52,0.409C90.381,246.177,84.916,246.379,79.451,246.61z M90.256,243.255l0.27-0.239 c0.917,0.105,1.679-1.066,1.244-1.88c-0.435-0.814-1.779-0.87-2.313-0.116C88.923,241.772,89.372,242.987,90.256,243.255z M85.997,228.074l0.209,0.172c0.016,0.687,0.981,1.117,1.549,0.706c0.569-0.411,0.469-1.407-0.155-1.716 C86.976,226.927,86.106,227.393,85.997,228.074z M64.382,232.912c0.041-0.38-0.247-0.775-0.625-0.825l0.343-0.052 c-0.464-0.383-1.289-0.13-1.46,0.447c-0.171,0.577,0.383,1.237,0.981,1.17C64.001,233.609,64.341,233.292,64.382,232.912z M65.348,226.778c-0.344,0.365-0.689,0.729-1.033,1.094l0.201,0.481c0.173,0.709,1.347,0.764,1.691,0.12 C66.551,227.83,66.056,226.957,65.348,226.778z M70.881,230.388c0.26,0.071,0.521,0.142,0.781,0.213 c0.234-0.151,0.364-0.423,0.391-0.7C71.661,230.064,71.271,230.226,70.881,230.388z M69.297,231.476 c0.375-0.224,0.703-0.514,1.005-0.829l0.081-0.051c-0.019,0.008-0.037,0.016-0.056,0.023c0.146-0.155,0.3-0.304,0.424-0.478 l-0.485,0.503c0.45-0.358,0.266-1.192-0.271-1.397c-0.537-0.206-1.187,0.191-1.334,0.747 C68.514,230.549,68.814,231.163,69.297,231.476z M72.803,236.591l1.522-1.373c-0.149-0.46-0.573-0.739-1.046-0.837 c-0.1-0.453-0.294-0.886-0.62-1.219c-0.754-0.771-2.024-0.973-2.98-0.476c-0.195,0.574-0.22,1.203-0.072,1.79l0.248-0.124 c0.713,0.564,1.507,1.01,2.331,1.394l0.029,0.615L72.803,236.591z M74.72,242.699c-0.435,0.263-0.871,0.526-1.306,0.789 l-0.051,0.108c-0.097,0.803,0.973,1.464,1.647,1.018S75.497,242.925,74.72,242.699z M77.279,224.814 c-0.559-0.134-1.166,0.181-1.468,0.67c0.353,0.561,0.821,1.048,1.368,1.423l-0.514-0.474c0.368,0.441,1.198,0.238,1.391-0.303 C78.25,225.588,77.838,224.948,77.279,224.814z M271.476,255.204c-0.001-0.003,0-0.007-0.001-0.011c-0.003,0-0.005,0-0.008,0 L271.476,255.204z M335.422,195.755c9.925,0.411,19.836,0.874,29.761,1.325c-0.398,1.497-0.822,2.995-1.246,4.492 c-9.872-0.451-19.756-0.901-29.641-1.312c-2.014,7.95-4.187,15.874-6.479,23.745c10.15-0.702,20.273-1.722,30.357-3.087 c-0.517,1.59-1.06,3.18-1.59,4.77c-10.031,1.325-20.088,2.292-30.171,2.955c-1.935,6.453-3.949,12.88-6.082,19.266 c-0.358,1.073-0.729,2.12-1.1,3.194c9.845-0.57,19.637-1.67,29.35-3.472c0.808-2.041,1.617-4.094,2.398-6.161 c5.737-15.066,10.574-30.476,14.668-46.072c1.232-4.704,2.372-9.421,3.419-14.165c0.013-0.04,0.013-0.08,0.027-0.119 c-10.086,0.026-20.176,0.06-30.265,0.089C337.739,186.066,336.617,190.92,335.422,195.755z M300.494,299.89 c-0.914,0.053-1.829,0.093-2.743,0.146c-2.451,4.015-5.247,7.817-8.348,11.355c0.715,0.013,1.418,0.027,2.133,0.04 c1.51,0.027,3.021,0.053,4.531,0.093c2.836-3.975,5.645-7.95,8.48-11.925C303.198,299.705,301.846,299.811,300.494,299.89z M274.391,300.699h-0.994c0.093,0.596-0.04,1.245-0.411,1.696c-2.478,2.915-4.956,5.843-7.433,8.772 c2.836,0.013,5.658,0.027,8.494,0.053c2.968-3.312,5.658-6.877,8.056-10.627C279.532,300.632,276.962,300.672,274.391,300.699z M302.469,295.226c7.659-0.53,15.291-1.352,22.87-2.61c2.637-3.697,5.035-7.579,7.248-11.395c0.875-1.524,1.736-3.048,2.57-4.598 c-8.427,0.067-16.841,0.133-25.255,0.186C307.517,282.983,305.053,289.118,302.469,295.226z M308.511,300.063 c-2.73,3.856-5.473,7.685-8.202,11.528c4.373-0.278,8.454-2.385,11.925-4.969c3.392-2.531,6.413-5.552,9.156-8.838 c-4.147,0.596-8.308,1.073-12.482,1.457C308.816,299.532,308.683,299.824,308.511,300.063z M185.123,300.845 c-3.511,3.432-7.036,6.864-10.547,10.282h7.38c3.153-3.432,6.294-6.85,9.447-10.282H185.123z M221.509,300.858 c-2.955,3.405-5.91,6.824-8.865,10.229c3.141-0.014,6.267-0.014,9.408-0.014h2.411l9.183-10.216H221.509z M263.513,300.738 c-0.08,0.265-0.199,0.517-0.371,0.729c-2.518,3.379-5.234,6.599-8.136,9.66c1.974,0,3.962,0.014,5.936,0.026 c2.942-3.485,5.883-6.956,8.838-10.441C267.686,300.725,265.606,300.725,263.513,300.738z M248.433,300.792 c-3.286,0.013-6.585,0.039-9.871,0.039h-0.159c-3.061,3.419-6.122,6.824-9.196,10.242c3.021,0,6.042,0,9.077,0.014 C242.06,308.026,245.412,304.608,248.433,300.792z M174.404,300.831h-4.306c-0.954,0-1.908,0.014-2.862,0.014 c-0.079,0.132-0.132,0.278-0.239,0.384c-3.087,3.312-6.188,6.625-9.275,9.938c3.922-0.013,7.857-0.013,11.78-0.026 c3.511-3.432,7.036-6.864,10.547-10.296C178.166,300.845,176.285,300.831,174.404,300.831z M252.621,300.778 c-0.066,0.357-0.225,0.702-0.437,0.98c-2.518,3.366-5.353,6.493-8.441,9.328c2.107,0.013,4.227,0.013,6.347,0.027 c3.273-3.247,6.307-6.718,9.143-10.362C257.033,300.765,254.82,300.778,252.621,300.778z M201.845,300.858 c-1.882,0-3.763-0.013-5.645-0.013c-3.141,3.432-6.294,6.85-9.435,10.269c2.226,0,4.452-0.014,6.678,0 c3.286-3.419,6.572-6.837,9.872-10.256H201.845z M286.25,300.5c-2.253,3.763-4.77,7.367-7.566,10.746 c2.001,0.027,4.002,0.053,6.016,0.08c3.233-3.445,6.148-7.156,8.758-11.091C291.06,300.328,288.649,300.434,286.25,300.5z M154.674,300.845c-3.458,3.458-6.917,6.903-10.375,10.335c2.862,0,5.738,0,8.6-0.013c3.207-3.445,6.426-6.877,9.633-10.322H154.674 z M311.625,272.25c8.652-0.04,17.305-0.119,25.944-0.173c3.299-6.4,6.281-12.985,9.05-19.637c-9.567,1.656-19.24,2.677-28.952,3.194 C315.733,261.199,313.705,266.738,311.625,272.25z M125.92,300.884c-3.18,3.445-6.347,6.891-9.527,10.335 c3.617,0,7.235,0,10.852-0.013c3.498-3.432,7.01-6.89,10.521-10.335C133.817,300.871,129.869,300.884,125.92,300.884z M208.205,300.871c-3.286,3.405-6.585,6.824-9.858,10.229c3.22-0.013,6.427-0.013,9.633-0.013c2.942-3.405,5.897-6.824,8.851-10.229 C213.956,300.858,211.081,300.871,208.205,300.871z M144.351,300.871h-1.55c-0.04,0.04-0.066,0.079-0.106,0.119 c-3.471,3.406-6.93,6.797-10.388,10.216c2.332,0,4.651,0,6.983-0.013c3.471-3.445,6.917-6.89,10.388-10.335 C147.903,300.858,146.127,300.858,144.351,300.871z M312.791,118.465c-2.438-0.013-4.889-0.026-7.341-0.04 c-5.772,6.253-11.543,12.519-17.317,18.78c2.948-0.011,5.896-0.021,8.844-0.04C302.248,130.928,307.52,124.695,312.791,118.465z M313.954,137.018c2.956-0.032,5.911-0.065,8.866-0.104l14.723-18.302c-2.372-0.04-4.744-0.053-7.115-0.066 C324.613,124.401,319.12,130.576,313.954,137.018z M301.621,137.138c2.61-0.02,5.219-0.051,7.829-0.076 c5.038-6.442,10.38-12.641,16.075-18.53c-2.703-0.013-5.406-0.026-8.123-0.04C312.145,124.714,306.881,130.923,301.621,137.138z" fill="#905D30"/></g><g id="change3_1"><path d="M359.559,136.245c-2.274,0.053-4.549,0.098-6.824,0.147c-1.472,0.031-2.943,0.059-4.415,0.089 c-2.534,0.051-5.069,0.108-7.603,0.154c-1.496,0.027-2.992,0.053-4.488,0.078c-2.945,0.05-5.89,0.089-8.835,0.132 c-1.525,0.022-3.049,0.048-4.573,0.068c-2.955,0.039-5.911,0.072-8.866,0.104c-1.501,0.016-3.003,0.029-4.504,0.044 c-2.61,0.025-5.219,0.057-7.829,0.076c-1.548,0.012-3.096,0.019-4.644,0.028c-2.948,0.019-5.896,0.029-8.844,0.04 c-1.603,0.006-3.206,0.018-4.809,0.022c-3.048,0.008-6.097,0.006-9.145,0.006c-1.623,0-3.247-0.001-4.87-0.003 c-4-0.005-7.999-0.013-11.999-0.031c-1.581-0.007-3.162-0.019-4.742-0.028c-3.927-0.022-7.854-0.043-11.781-0.078 c-1.554-0.014-3.109-0.036-4.663-0.052c-4.097-0.042-8.195-0.081-12.292-0.136c-0.218-0.003-0.436-0.004-0.653-0.007 c-1.3-0.018-2.6-0.045-3.9-0.064c-4.475-0.066-8.95-0.138-13.425-0.221c-1.429-0.026-2.858-0.054-4.288-0.082 c-3.937-0.078-7.874-0.167-11.81-0.257c-1.5-0.035-3.001-0.062-4.501-0.098c-2.198-0.053-4.396-0.116-6.594-0.173 c-1.402-0.037-2.805-0.076-4.207-0.114c-2.495-0.068-4.99-0.13-7.485-0.203c-1.357-0.04-2.714-0.079-4.071-0.12 c-4.201-0.127-8.402-0.267-12.602-0.409c-1.414-0.048-2.828-0.088-4.242-0.138c-3.652-0.128-7.304-0.271-10.956-0.41 c-1.465-0.056-2.93-0.109-4.395-0.166c-3.247-0.127-6.494-0.258-9.74-0.394c-1.416-0.059-2.831-0.122-4.247-0.183 c-3.276-0.141-6.552-0.274-9.827-0.424c-1.446-0.066-2.891-0.139-4.337-0.207c-3.72-0.174-7.439-0.355-11.158-0.541 c-1.375-0.069-2.75-0.13-4.124-0.2c-3.998-0.204-7.996-0.426-11.994-0.643c-1.395-0.076-2.79-0.148-4.185-0.225 c-1.241-0.069-2.482-0.13-3.722-0.2c-3.382-0.19-6.763-0.395-10.144-0.594c-1.328-0.078-2.655-0.154-3.983-0.233 c-4.884-0.294-9.767-0.6-14.65-0.913c-1.351-0.086-2.702-0.168-4.053-0.256c-4.238-0.277-8.475-0.567-12.712-0.858 c-1.361-0.094-2.722-0.182-4.083-0.277c-2.796-0.196-5.591-0.403-8.386-0.605c-1.316-0.095-2.632-0.19-3.948-0.286 c-1.67-0.123-3.34-0.238-5.009-0.363c-0.265,1.418-0.398,2.849-0.398,4.28c-0.015,2.099,0.083,4.229,0.199,6.355 c0.052,0.952,0.105,1.902,0.156,2.849c0.044,0.808,0.088,1.616,0.122,2.416c0.058,1.316,0.141,2.63,0.233,3.943 c0.03,0.424,0.061,0.848,0.094,1.272c0.079,1.01,0.167,2.018,0.264,3.026c0.063,0.656,0.13,1.313,0.2,1.969 c0.084,0.794,0.172,1.588,0.266,2.381c0.087,0.74,0.179,1.48,0.273,2.219c0.042,0.328,0.086,0.655,0.13,0.982 c0.729,5.518,1.635,11.015,2.589,16.501c0.213,1.223,0.426,2.446,0.641,3.668c0.384,2.134,0.729,4.267,1.06,6.4 c14.401-0.65,28.807-1.169,43.215-1.603c1.425-0.043,2.85-0.089,4.276-0.13c13.561-0.391,27.123-0.701,40.687-0.946 c1.408-0.025,2.817-0.047,4.225-0.071c9.839-0.168,19.679-0.308,29.518-0.419c1.395-0.016,2.79-0.029,4.185-0.043 c3.224-0.034,6.449-0.072,9.673-0.101c7.283-0.067,14.565-0.123,21.847-0.172c1.388-0.009,2.777-0.016,4.165-0.024 c5.991-0.038,11.983-0.074,17.974-0.105c-4.097,2.907-7.671,6.503-10.453,10.726c-0.475,0.721-0.943,1.47-1.398,2.239 c-0.88,1.488-1.707,3.055-2.402,4.678c-1.358,3.171-2.223,6.543-2.049,9.895c0.128,2.47,0.816,5.077,2.593,6.888 c1.939,1.977,4.927,2.4,7.457,1.423c1.843-0.712,3.378-2.025,4.667-3.546c-0.358,2.27-0.654,4.55-0.918,6.833 c-0.176,1.522-0.342,3.046-0.475,4.574c-0.345,3.957-0.549,7.928-0.603,11.905c-0.036,2.682,0.009,5.362,0.109,8.041 c0.056,1.506,0.134,3.01,0.232,4.514c0.126,1.923,0.273,3.845,0.466,5.764c0.257,2.56,3.815,1.776,3.581-0.556 c-0.171-1.702-0.307-3.406-0.423-5.111c-0.102-1.505-0.188-3.011-0.248-4.517c-0.262-6.616-0.108-13.239,0.449-19.828 c0.129-1.526,0.275-3.051,0.447-4.573c0.596-5.255,1.448-10.482,2.561-15.658c0.667-1.393,1.296-2.803,1.866-4.233 c0.349-0.876,0.677-1.759,0.987-2.647c0.305-0.872,0.592-1.749,0.865-2.63c0.146,0.585,0.324,1.163,0.493,1.742 c-0.013,0.281-0.01,0.562-0.021,0.843c-0.301,7.702,0.05,15.419,1.03,23.065c0.198,1.549,0.417,3.094,0.668,4.636 c0.812,4.991,1.881,9.944,3.244,14.827c0.681,2.44,4.032,0.665,3.426-1.508c-1.205-4.317-2.177-8.688-2.937-13.092 c-0.266-1.542-0.501-3.087-0.712-4.636c-0.708-5.185-1.126-10.404-1.228-15.632c1.828,3.439,4.298,6.912,7.446,8.768 c1.278,0.753,2.669,1.235,4.174,1.345c0.69,0.05,1.402,0.029,2.14-0.09c7.385-1.19,10.324-9.993,10.93-16.405 c0.059-0.622,0.087-1.249,0.111-1.876c0.058-1.506,0.009-3.018-0.142-4.523c-0.42-4.172-1.654-8.256-3.879-11.782 c11.802-0.039,23.603-0.068,35.405-0.099c1.395-0.004,2.791-0.008,4.186-0.012c11.773-0.03,23.547-0.061,35.319-0.098 c1.336-0.004,2.672-0.008,4.008-0.012c1.39-0.004,2.781-0.008,4.171-0.012c11.159-0.035,22.319-0.066,33.481-0.099 c1.404-0.004,2.808-0.008,4.213-0.012c10.089-0.03,20.178-0.063,30.265-0.089c0.628-2.839,1.222-5.683,1.789-8.533 c0.309-1.556,0.589-3.117,0.881-4.677c0.206-1.098,0.421-2.194,0.619-3.293c0.113-0.63,0.224-1.26,0.334-1.891 c0.408-2.324,0.801-4.65,1.176-6.98c0.047-0.293,0.098-0.586,0.144-0.88c0.362-2.278,0.701-4.56,1.034-6.844 c0.081-0.553,0.171-1.104,0.251-1.658c0.14-0.968,0.242-1.965,0.343-2.968c0.091-0.895,0.183-1.793,0.301-2.683 c0.022-0.165,0.046-0.329,0.07-0.494c0.038-0.26,0.079-0.519,0.124-0.776c0.031-0.183,0.063-0.367,0.098-0.549 c0.08-0.412,0.167-0.821,0.27-1.223c0.186-0.702,0.397-1.285,0.596-1.868c-4.337,0.122-8.676,0.225-13.014,0.332 C362.591,136.166,361.075,136.21,359.559,136.245z M186.251,204.253c-1.236,2.554-2.563,5.186-4.434,7.33 c-1.495,1.714-3.863,3.428-6.172,2.15c-1.615-0.894-2.199-2.896-2.342-4.621c-0.281-3.384,0.821-6.834,2.358-9.967 c0.637-1.298,1.347-2.543,2.068-3.705c0.206-0.332,0.432-0.651,0.649-0.976c3.11-4.667,7.302-8.652,12.162-11.445 c0.543-0.312,0.98-0.792,1.173-1.357c0.167,0,0.334-0.001,0.501-0.002c-0.071,0.81-0.121,1.621-0.153,2.432 c-1.18,3.291-2.255,6.618-3.222,9.975c-0.44,1.525-0.85,3.058-1.245,4.595C187.115,200.517,186.663,202.38,186.251,204.253z M218.279,193.361c0.144,1.073,0.241,2.152,0.255,3.231c0.005,0.409-0.001,0.844-0.013,1.29c-0.136,5.024-1.482,12.027-6.458,14.061 c-1.098,0.449-2.149,0.54-3.151,0.37c-1.511-0.256-2.904-1.117-4.156-2.304c-2.809-2.663-4.91-6.942-6.038-9.6 c-0.291-0.687-0.556-1.383-0.806-2.083c-0.181-0.506-0.357-1.013-0.516-1.524c0.05-1.003,0.121-2.006,0.194-3.008 c0.297-4.07,0.773-8.129,1.441-12.164c1.86-0.009,3.72-0.016,5.581-0.024c1.399-0.006,2.799-0.012,4.198-0.018 c1.459-0.006,2.919-0.014,4.379-0.019C216.062,184.843,217.699,189.028,218.279,193.361z" fill="#FFCB60"/></g><g id="change1_2"><path d="M80.021,114.782c-0.918-0.073-1.834-0.144-2.752-0.217c-0.058-1.558-0.087-3.115-0.07-4.672 c3.922-1.06,7.897-1.445,12.058-1.113c-0.007,2.215,0.075,4.437,0.235,6.662c-0.736-0.046-1.472-0.081-2.209-0.129 c-4.006,5.509-8.007,11.025-12.008,16.538c-1.395-0.076-2.79-0.148-4.185-0.225c4.02-5.534,8.039-11.073,12.059-16.604 C82.101,114.941,81.067,114.861,80.021,114.782z M308.431,113.165c-0.477-0.119-0.994-0.198-1.59-0.159l-4.956,0.305 c-0.305-0.079-0.636-0.132-0.98-0.146c0.276,1.741,0.512,3.493,0.72,5.25c-0.32,0-0.637-0.003-0.959-0.003 c-5.792,6.268-11.565,12.54-17.343,18.815c1.603-0.004,3.206-0.016,4.809-0.022c5.774-6.261,11.545-12.527,17.317-18.78 c2.452,0.013,4.903,0.026,7.341,0.04c-5.271,6.23-10.543,12.462-15.814,18.701c1.548-0.01,3.096-0.017,4.644-0.028 c5.26-6.215,10.524-12.424,15.781-18.646c-0.676,0-1.352-0.013-2.027-0.013c-0.461,0-0.923-0.004-1.384-0.007 c-0.177-1.79-0.381-3.577-0.63-5.359C311.704,113.02,310.061,113.046,308.431,113.165z M0.357,140.523 c-0.052-0.947-0.104-1.897-0.156-2.849C0.251,138.628,0.304,139.575,0.357,140.523z M193.796,197.607 c-0.169-0.58-0.347-1.157-0.493-1.742c-0.272,0.881-0.56,1.758-0.865,2.63c0.445-0.015,0.891-0.031,1.336-0.045 C193.785,198.169,193.783,197.888,193.796,197.607z M194.804,221.515c-2.593-0.161-5.186-0.322-7.78-0.481 c-0.172,1.522-0.318,3.047-0.447,4.573c2.966,0.18,5.93,0.362,8.895,0.544C195.221,224.61,195.003,223.064,194.804,221.515z M178.378,194.463c-0.217,0.325-0.443,0.645-0.649,0.976c-0.721,1.161-1.431,2.407-2.068,3.705 c3.977-0.178,7.954-0.339,11.931-0.484c0.395-1.537,0.806-3.07,1.245-4.595C185.351,194.186,181.864,194.317,178.378,194.463z M375.081,148.014c0.079-0.557,0.159-1.1,0.238-1.656c-0.079,0.553-0.17,1.105-0.251,1.658 C375.073,148.015,375.077,148.015,375.081,148.014z M371.762,167.904c-0.292,1.559-0.572,3.12-0.881,4.677c0,0,0,0,0,0 c0.013-0.04,0.013-0.066,0.026-0.106c0.291-1.524,0.57-3.061,0.861-4.571C371.766,167.903,371.764,167.903,371.762,167.904z M319.231,251.102c9.845-0.57,19.637-1.67,29.35-3.472c-0.133,0.318-0.252,0.636-0.384,0.954c-0.517,1.285-1.047,2.571-1.577,3.856 c-9.567,1.656-19.24,2.677-28.952,3.194c-1.934,5.565-3.962,11.104-6.042,16.616c8.652-0.04,17.305-0.119,25.944-0.173 c-0.782,1.524-1.577,3.048-2.398,4.545h-0.013c-8.427,0.067-16.841,0.133-25.255,0.186c-2.385,6.175-4.85,12.31-7.433,18.418 c7.659-0.53,15.291-1.352,22.87-2.61h0.013c-0.08,0.106-0.146,0.212-0.238,0.318c-0.371,0.53-0.755,1.047-1.14,1.551 c-0.424,0.556-0.835,1.126-1.272,1.67c-0.424,0.556-0.861,1.1-1.312,1.63c-4.147,0.596-8.308,1.073-12.482,1.457 c-0.093,0.292-0.225,0.583-0.397,0.822c-2.73,3.856-5.473,7.685-8.202,11.528c-0.504,0.04-1.02,0.04-1.524,0.026 c-0.901-0.04-1.815-0.066-2.716-0.093c2.836-3.975,5.645-7.95,8.48-11.925c-1.352,0.106-2.703,0.212-4.055,0.292 c-0.914,0.053-1.829,0.093-2.743,0.146c-2.451,4.015-5.247,7.817-8.348,11.355c-1.577-0.026-3.14-0.053-4.704-0.066 c3.233-3.445,6.148-7.156,8.758-11.091c-2.398,0.093-4.81,0.199-7.208,0.265c-2.253,3.763-4.77,7.367-7.566,10.746 c-1.55-0.013-3.101-0.013-4.638-0.027c2.968-3.312,5.658-6.877,8.056-10.627c-2.571,0.04-5.141,0.08-7.712,0.106h-0.994 c0.093,0.596-0.04,1.245-0.411,1.696c-2.478,2.915-4.956,5.843-7.433,8.772c-1.113,0-2.226-0.013-3.339-0.013h-1.272 c2.942-3.485,5.883-6.956,8.838-10.441c-2.094,0.013-4.174,0.013-6.267,0.026c-0.08,0.265-0.199,0.517-0.371,0.729 c-2.518,3.379-5.234,6.599-8.136,9.66c-1.643-0.013-3.286-0.013-4.916-0.013c3.273-3.247,6.307-6.718,9.143-10.362 c-2.2,0.013-4.412,0.027-6.612,0.027c-0.066,0.357-0.225,0.702-0.437,0.98c-2.518,3.366-5.353,6.493-8.441,9.328h-5.459 c3.776-3.061,7.129-6.479,10.15-10.295c-3.286,0.013-6.585,0.039-9.871,0.039h-0.159c-3.061,3.419-6.122,6.824-9.196,10.242h-4.744 l9.183-10.216h-12.137c-2.955,3.405-5.91,6.824-8.865,10.229h-4.664c2.942-3.405,5.897-6.824,8.851-10.229 c-2.875,0-5.751,0.013-8.626,0.013c-3.286,3.405-6.585,6.824-9.858,10.229c-1.63,0-3.26,0-4.903,0.014 c3.286-3.419,6.572-6.837,9.872-10.256h-1.471c-1.882,0-3.763-0.013-5.645-0.013c-3.141,3.432-6.294,6.85-9.435,10.269 c-1.603,0-3.206,0-4.81,0.013c3.153-3.432,6.294-6.85,9.447-10.282h-6.281c-3.511,3.432-7.036,6.864-10.547,10.282 c-1.696,0.014-3.379,0.014-5.075,0.014c3.511-3.432,7.036-6.864,10.547-10.296c-1.882,0-3.763-0.014-5.645-0.014h-4.306 c-0.954,0-1.908,0.014-2.862,0.014c-0.079,0.132-0.132,0.278-0.239,0.384c-3.087,3.312-6.188,6.625-9.275,9.938h-4.823 c3.207-3.445,6.426-6.877,9.633-10.322h-7.858c-3.458,3.458-6.917,6.903-10.375,10.335c-1.669,0.013-3.339,0.013-5.008,0.013 c3.471-3.445,6.917-6.89,10.388-10.335c-1.775,0-3.551,0-5.327,0.013h-1.55c-0.04,0.04-0.066,0.079-0.106,0.119 c-3.471,3.406-6.93,6.797-10.388,10.216h-5.062c3.498-3.432,7.01-6.89,10.521-10.335c-3.948,0-7.897,0.013-11.846,0.013 c-3.18,3.445-6.347,6.891-9.527,10.335c-1.603,0.013-3.207,0.013-4.81,0c3.18-3.445,6.347-6.89,9.527-10.322h-7.341 c-0.066,0.344-0.186,0.662-0.411,0.901c-3.061,3.154-6.135,6.294-9.196,9.434h-4.929c3.366-3.445,6.718-6.89,10.07-10.335 c-3.18,0.013-6.373,0.013-9.553,0.013c-3.352,3.432-6.718,6.864-10.07,10.309c-1.643,0.013-3.286,0-4.929-0.013 c3.352-3.432,6.705-6.864,10.057-10.296c-3.405,0.013-6.811,0.013-10.229,0.013c-3.101,3.432-6.188,6.877-9.289,10.322 c-1.603,0.04-3.22,0.093-4.836,0.106c3.114-3.472,6.241-6.943,9.368-10.415c-1.245,0-2.478,0-3.736,0.013h-6.877 c-3.22,3.127-6.453,6.267-9.673,9.395c-1.299-0.344-2.438-0.888-3.485-1.55c2.69-2.611,5.393-5.221,8.083-7.831l-17.067,0.013 c-0.159-0.173-0.318-0.358-0.477-0.543c-0.132-0.159-0.265-0.318-0.384-0.477c-0.239-0.292-0.464-0.61-0.676-0.954 c-0.119-0.159-0.225-0.331-0.331-0.503c-0.186-0.318-0.358-0.623-0.543-0.941c-0.212-0.371-0.424-0.755-0.636-1.126 c10.19-0.013,20.393-0.027,30.582-0.027c-2.107-6.427-4.081-12.879-5.963-19.372c-0.079-0.278-0.146-0.57-0.238-0.848 c-11.753-0.133-23.506-0.278-35.26-0.424c-0.358-0.755-0.702-1.524-1.047-2.279c-0.344-0.768-0.689-1.537-1.033-2.306h0.013 c12.031,0.159,24.036,0.305,36.068,0.437c-1.802-6.519-3.538-13.065-5.128-19.637c-12.654,0.649-25.295,1.365-37.949,2.107 c-0.265-0.729-0.53-1.471-0.795-2.213c-0.252-0.742-0.504-1.484-0.769-2.226c4.05-0.239,8.1-0.47,12.15-0.704 c-0.122-0.062-0.245-0.124-0.367-0.186l0.591-0.687c-0.462-0.661-0.459-1.667,0.135-2.211c0.594-0.545,1.743-0.349,1.994,0.418 c0.149,0.455-0.024,0.954-0.267,1.367c-0.285,0.485-0.671,0.91-1.123,1.243c8.444-0.486,16.889-0.959,25.34-1.387 c-1.828-7.844-3.538-15.715-5.075-23.625c-13.317,1.047-26.58,2.663-39.738,4.942h-0.013c-0.305-1.166-0.61-2.332-0.928-3.498 c-0.079-0.292-0.159-0.583-0.238-0.875c13.264-2.345,26.646-3.975,40.069-5.035c-1.047-5.631-2.027-11.263-2.915-16.907 c-14.801-1.047-29.495-3.047-44.018-6.479H8.084c-0.066-0.358-0.133-0.702-0.199-1.047c-0.066-0.344-0.146-0.689-0.199-1.047 c-0.093-0.477-0.172-0.954-0.252-1.444l-0.239-1.431c14.522,3.564,29.323,5.685,44.217,6.811c-0.199-1.312-0.411-2.61-0.596-3.922 c-0.489-3.412-0.943-6.826-1.373-10.242c1.425-0.043,2.85-0.089,4.276-0.13c0.622,4.869,1.299,9.731,2.04,14.586 c8.679,0.543,17.384,0.768,26.077,0.755c4.426-0.013,8.865-0.093,13.29-0.199c-0.093-1.603-0.212-3.206-0.292-4.81 c-0.186-3.756-0.325-7.516-0.429-11.278c1.408-0.025,2.817-0.047,4.225-0.071c0.163,5.354,0.401,10.708,0.722,16.053 c9.633-0.305,19.253-0.795,28.886-1.365c-0.105-5.033-0.128-10.07-0.09-15.107c1.395-0.016,2.79-0.029,4.185-0.043 c-0.023,4.969,0.015,9.938,0.119,14.912c7.261-0.437,14.523-0.901,21.784-1.338c3.034-0.172,6.069-0.318,9.09-0.477 c0.12-4.46,0.299-8.917,0.527-13.37c1.388-0.009,2.777-0.016,4.165-0.024c-0.214,4.39-0.378,8.781-0.492,13.169 c2.204-0.111,4.41-0.209,6.615-0.309c-0.88,1.488-1.707,3.055-2.402,4.678c-1.435,0.068-2.871,0.131-4.306,0.203 c-0.133,6.771-0.133,13.555-0.027,20.34c5.361,0.303,10.722,0.626,16.083,0.951c-0.176,1.522-0.342,3.046-0.475,4.574 c-5.166-0.311-10.332-0.62-15.502-0.914c0.132,5.3,0.305,10.614,0.583,15.914c0.079,1.55,0.199,3.1,0.291,4.651 c4.713,0.068,9.424,0.171,14.133,0.295c0.056,1.506,0.134,3.01,0.232,4.514c-4.689-0.129-9.38-0.236-14.074-0.304 c0.517,7.606,1.179,15.198,1.974,22.778c10.878,0.053,21.757,0.092,32.636,0.106c0.305-7.261,0.57-14.522,0.769-21.784 c-5.891-0.285-11.785-0.517-17.682-0.699c-0.102-1.505-0.188-3.011-0.248-4.517c6.017,0.178,12.033,0.404,18.049,0.685 c0.159-6.466,0.305-12.932,0.397-19.412c-1.79-0.109-3.58-0.219-5.37-0.328c-0.266-1.542-0.501-3.087-0.712-4.636 c2.049,0.127,4.1,0.253,6.149,0.38c0.032-2.417,0.048-4.83,0.07-7.245c1.278,0.753,2.669,1.235,4.174,1.345 c-0.015,2.051-0.023,4.101-0.043,6.151c5.26,0.318,10.521,0.636,15.794,0.928c7.844,0.424,15.689,0.821,23.546,1.139 c1.206-8.388,2.319-16.788,3.326-25.202c0.053-0.45,0.093-0.901,0.146-1.338c-9.858-0.104-19.726-0.13-29.587-0.05 c0.058-1.506,0.009-3.018-0.142-4.523c2.159-0.02,4.318-0.043,6.475-0.052c7.924-0.04,15.847,0.013,23.771,0.093 c0.444-3.97,0.869-7.945,1.279-11.921c1.395-0.004,2.791-0.008,4.186-0.012c-0.413,4-0.84,7.996-1.292,11.986 c12.946,0.172,25.891,0.464,38.837,0.861c0.639-4.32,1.224-8.637,1.782-12.958c1.39-0.004,2.781-0.008,4.171-0.012 c-0.559,4.371-1.146,8.735-1.792,13.089c10.64,0.344,21.267,0.742,31.907,1.179c1.171-4.777,2.287-9.567,3.366-14.367 c1.404-0.004,2.808-0.008,4.213-0.012c-1.088,4.863-2.21,9.717-3.405,14.552c9.925,0.411,19.836,0.874,29.761,1.325 c-0.398,1.497-0.822,2.995-1.246,4.492c-9.872-0.451-19.756-0.901-29.641-1.312c-2.014,7.95-4.187,15.874-6.479,23.745 c10.15-0.702,20.273-1.722,30.357-3.087c-0.517,1.59-1.06,3.18-1.59,4.77c-10.031,1.325-20.088,2.292-30.171,2.955 c-1.935,6.453-3.949,12.88-6.082,19.266C319.973,248.982,319.601,250.029,319.231,251.102z M163.313,224.244 c-7.062-0.397-14.125-0.769-21.187-1.073c-2.835-0.12-5.684-0.225-8.52-0.331c0.437,6.612,0.98,13.211,1.656,19.809 c0.079,0.782,0.185,1.577,0.278,2.358c9.54-0.106,19.08-0.106,28.634-0.013c-0.077-1.333-0.147-2.667-0.217-4.001 c-0.266-0.09-0.472-0.25-0.512-0.475c-0.044-0.25,0.156-0.538,0.447-0.713c-0.191-3.75-0.347-7.499-0.463-11.249 c-0.02,0.118-0.049,0.237-0.118,0.338c-0.33,0.487-1.142,0.531-1.521,0.082l0.028-1.091c0.335-0.145,0.669-0.29,1.004-0.434 c0.334,0.112,0.54,0.435,0.598,0.779C163.38,226.901,163.341,225.572,163.313,224.244z M132.585,201.519 c0.159,5.579,0.424,11.157,0.742,16.735c5.87,0.212,11.74,0.45,17.596,0.742c4.094,0.199,8.189,0.424,12.283,0.649 c-0.093-6.638-0.093-13.277,0.026-19.915c-6.4,0.331-12.8,0.702-19.213,1.1C140.217,201.056,136.401,201.294,132.585,201.519z M131.764,249.578c-8.904,0.133-17.795,0.331-26.686,0.61c1.179,7.288,2.531,14.549,4.028,21.771 c2.088,0.019,4.172,0.033,6.26,0.052c-0.265-0.258-0.531-0.515-0.764-0.801l-0.222,0.056c-0.014-0.501,0.119-1.005,0.38-1.433 c0.861-0.23,1.851,0.163,2.321,0.92c0.235,0.378,0.33,0.832,0.293,1.275c5.802,0.052,11.605,0.108,17.399,0.144 C133.619,264.658,132.612,257.131,131.764,249.578z M129.365,222.707c-9.342-0.305-18.696-0.49-28.051-0.49 c0.258,2.434,0.537,4.868,0.829,7.299c0.73-0.508,1.79-0.479,2.49,0.069c0.702,0.55,0.984,1.576,0.661,2.407 c-0.995-0.222-1.955-0.604-2.832-1.126l-0.141,0.095c0.271,2.207,0.55,4.413,0.847,6.612c0.371,2.703,0.768,5.406,1.179,8.109 c8.971-0.278,17.954-0.477,26.925-0.609C130.492,237.627,129.856,230.167,129.365,222.707z M99.631,203.123 c0.331,4.863,0.755,9.712,1.233,14.549c9.407,0,18.815,0.159,28.223,0.45c-0.305-5.446-0.557-10.892-0.716-16.351 C118.805,202.327,109.225,202.818,99.631,203.123z M59.31,219.063c2.771-0.194,5.542-0.364,8.314-0.516 c0.196-0.087,0.406-0.141,0.62-0.136c0.13,0.003,0.254,0.034,0.371,0.079c2.941-0.157,5.881-0.29,8.822-0.394 c3.975-0.148,7.95-0.242,11.925-0.312c0.065-0.344,0.285-0.636,0.598-0.686c0.355-0.057,0.741,0.279,0.806,0.667 c1.944-0.03,3.887-0.067,5.831-0.08c-0.464-4.81-0.875-9.62-1.206-14.443c-12.985,0.331-25.984,0.278-38.916-0.464 C57.349,208.211,58.303,213.643,59.31,219.063z M65.3,247.286c4.717-0.225,9.434-0.464,14.151-0.676 c5.465-0.232,10.931-0.434,16.396-0.632c0.438-0.326,0.976-0.505,1.52-0.409c0.27,0.047,0.509,0.169,0.727,0.323 c0.663-0.023,1.326-0.053,1.989-0.077c-1.179-7.831-2.213-15.701-3.034-23.599c-9.553,0.066-19.12,0.305-28.66,0.821 c-2.743,0.146-5.486,0.318-8.215,0.504c0.951,4.888,1.967,9.762,3.044,14.618c0.217,0.187,0.364,0.485,0.29,0.768 c-0.037,0.019-0.074,0.038-0.111,0.057c0.062,0.28,0.119,0.561,0.182,0.841c0.068,0.305,0.142,0.609,0.211,0.914 c0.419-0.521,1.088-0.847,1.759-0.811c0.384,0.02,0.745,0.176,1.059,0.395c0.343-0.204,0.757-0.272,1.105-0.074 c0.635,0.359,0.554,1.531-0.159,1.688l-0.486,0.189c-0.121-0.12-0.241-0.239-0.362-0.358c-0.716,0.228-1.45,0.4-2.2,0.456 l-0.081,0.214c-0.115-0.075-0.206-0.18-0.307-0.272C64.506,243.875,64.89,245.586,65.3,247.286z M71.66,271.667 c0.636,0,1.285,0.013,1.921,0.013c10.266,0.105,20.531,0.158,30.797,0.249c0.004-0.164,0.035-0.326,0.134-0.457l0.102-0.009 c-1.419-7.013-2.689-14.053-3.816-21.13c-11.475,0.384-22.95,0.874-34.411,1.431c0.391,1.586,0.811,3.163,1.215,4.745 c0.123-0.17,0.283-0.309,0.484-0.377c0.66-0.223,1.435,0.411,1.323,1.103c-0.101,0.629-0.919,0.991-1.442,0.699 C69.151,262.524,70.37,267.101,71.66,271.667z M110.311,296.352c-1.683-6.572-3.207-13.184-4.624-19.823 c-10.905-0.093-21.823-0.199-32.729-0.305c1.961,6.758,4.028,13.476,6.228,20.167c6.731,0,13.449-0.013,20.167-0.013 C102.997,296.379,106.654,296.352,110.311,296.352z M139.051,296.326c-1.126-5.737-2.186-11.488-3.167-17.252 c-0.133-0.781-0.252-1.55-0.371-2.332c-8.48-0.053-16.947-0.119-25.414-0.186c1.431,6.639,2.968,13.237,4.677,19.796 C122.873,296.339,130.955,296.339,139.051,296.326z M139.131,272.197c6.364,0.037,12.737,0.059,19.109,0.083 c0.011-0.134,0.049-0.265,0.153-0.375c0.315-0.333,1.096-0.363,1.413-0.017l-0.108,0.398c2.23,0.009,4.458,0.02,6.689,0.029 c-0.795-7.593-1.471-15.211-1.961-22.831c-4.983-0.053-9.966-0.072-14.948-0.067c-0.32,0.769-1.193,1.407-2.162,1.538 c-0.149-0.501-0.243-1.016-0.286-1.538c-0.349,0.001-0.698-0.001-1.048,0c-3.299,0.013-6.612,0.08-9.925,0.119 c0.162,1.405,0.335,2.809,0.508,4.213c0.411-0.058,0.838,0.026,1.092,0.28c0.506,0.504,0.104,1.454-0.704,1.661 c-0.053-0.027-0.107-0.055-0.161-0.082c0.171,1.352,0.349,2.703,0.529,4.054l0.067-0.157l0.629-0.04 c0.095,0.182,0.19,0.364,0.286,0.546c0.909,0.001,1.817,0.072,2.701,0.283l0.172-0.217c0.382,0.471,0.624,1.052,0.689,1.655 c-0.658,0.854-1.896,1.204-2.904,0.822c-0.435-0.164-0.793-0.476-1.075-0.845c-0.094,0.022-0.189,0.031-0.283,0.037 c0.303,2.21,0.621,4.417,0.951,6.622c0.566-0.02,1.12,0.322,1.155,0.794c-0.271,0.298-0.542,0.597-0.813,0.896 c-0.029-0.004-0.058-0.008-0.088-0.011C138.915,270.765,139.019,271.482,139.131,272.197z M169.408,296.299 c-0.954-6.466-1.816-12.946-2.544-19.438c-3.059-0.009-6.119-0.017-9.178-0.025c-0.092,0.368-0.338,0.698-0.697,0.827 c-0.408-0.165-0.815-0.33-1.223-0.495c-0.006-0.112-0.011-0.225-0.016-0.337c-5.292-0.015-10.584-0.032-15.877-0.063 c0.537,3.267,1.097,6.533,1.686,9.795c0.638-0.233,1.452,0.123,1.49,0.685l-0.324-0.193c0.263,0.29,0.148,0.769-0.221,1.017 c-0.178,0.119-0.4,0.179-0.621,0.186c0.496,2.693,0.999,5.385,1.541,8.067C152.09,296.313,160.742,296.299,169.408,296.299z M203.051,278.385c0.001-0.023,0.002-0.046,0.003-0.069c-0.656,0.344-1.644,0.108-1.834-0.49c0.189-0.244,0.379-0.489,0.568-0.733 l-0.606,0.453c0.007-0.203,0.11-0.392,0.261-0.557c-8.823-0.015-17.646-0.053-26.469-0.097c-0.028,0.214-0.196,0.415-0.449,0.501 c-0.13-0.159-0.231-0.33-0.318-0.505c-1.008-0.005-2.016-0.009-3.024-0.014c0.172,1.53,0.371,3.059,0.555,4.589 c0.008,0.01,0.02,0.017,0.027,0.029c-0.007,0.005-0.015,0.009-0.022,0.014c0.595,4.934,1.234,9.865,1.97,14.781 c9.461,0,18.935-0.027,28.396-0.04C202.468,290.297,202.773,284.348,203.051,278.385z M294.015,225.277 c1.524-0.013,3.034-0.013,4.545-0.04c8.308-0.133,16.603-0.45,24.898-0.954c2.372-8.016,4.611-16.086,6.665-24.182 c-10.481-0.437-20.975-0.821-31.457-1.166C297.301,207.747,295.737,216.532,294.015,225.277z M252.329,224.614 c12.482,0.477,24.977,0.755,37.472,0.703c1.749-8.812,3.326-17.649,4.704-26.527c-0.252,0-0.517-0.013-0.768-0.026 c-12.641-0.371-25.295-0.676-37.936-0.835C254.754,206.833,253.588,215.737,252.329,224.614z M248.553,249.075 c11.806,0.901,23.678,1.749,35.551,2.199c1.709-7.116,3.313-14.244,4.783-21.413c-12.416,0.04-24.818-0.226-37.234-0.702 c-0.888,6.122-1.829,12.23-2.836,18.338C248.725,248.028,248.632,248.545,248.553,249.075z M271.475,255.193 c-0.003,0-0.005,0-0.008,0l0.009,0.011C271.474,255.2,271.476,255.196,271.475,255.193z M247.771,253.607 c-1.086,6.294-2.226,12.588-3.432,18.869c11.435-0.013,22.87-0.04,34.292-0.08c1.524-5.525,2.995-11.077,4.373-16.643 c-3.562-0.136-7.123-0.315-10.682-0.511c-0.007,0.229-0.015,0.458-0.021,0.688c-0.541,0.058-1.031-0.318-1.052-0.75 c-1.295-0.073-2.59-0.147-3.885-0.226c0.379,0.31,0.478,0.882,0.02,1.189l-0.401,0.36c-0.514-0.125-1.029-0.249-1.543-0.373 c-0.087-0.468,0.251-0.995,0.749-1.243C260.047,254.503,253.909,254.064,247.771,253.607z M208.378,246.319 c6.44,0.331,12.866,0.729,19.293,1.179c5.552,0.398,11.117,0.835,16.709,1.259c1.1-6.572,2.16-13.158,3.14-19.756 c-10.574-0.437-21.134-0.994-31.695-1.617c-2.359-0.132-4.704-0.278-7.049-0.424c-0.08,5.592-0.172,11.17-0.318,16.762 C208.431,244.583,208.404,245.458,208.378,246.319z M207.45,272.449c3.737,0,7.473,0.027,11.21,0.04 c7.155,0,14.31-0.013,21.466-0.013c1.219-6.386,2.385-12.787,3.485-19.187c-7.579-0.583-15.158-1.166-22.738-1.67 c-4.214-0.278-8.414-0.53-12.628-0.742C208.033,258.059,207.755,265.254,207.45,272.449z M239.251,276.994 c-10.667,0-21.347,0.04-32.013,0.013c-0.292,6.427-0.596,12.84-0.967,19.24c4.77,0,9.527-0.013,14.297-0.013h14.761 c0.835-3.803,1.63-7.619,2.398-11.435C238.257,282.188,238.748,279.591,239.251,276.994z M277.386,276.941 c-7.061,0.025-14.122,0.029-21.182,0.032l-0.632,0.284c-0.034-0.095-0.068-0.189-0.103-0.284c-1.259,0-2.518,0.001-3.776,0.002 c0.036,0.53-0.292,1.105-0.919,1.291c-0.357,0.106-0.727,0.074-1.077-0.018c-0.021,0.218-0.095,0.433-0.293,0.595 c-0.558,0.455-1.614,0.295-1.845-0.279c-0.165-0.41,0.149-0.891,0.61-1.131c-0.169-0.141-0.323-0.294-0.464-0.455 c-1.409,0.001-2.818,0.001-4.227,0.002c-1.259,6.44-2.557,12.866-3.935,19.266c10.68,0.013,21.36,0.04,32.039-0.053 C273.609,289.794,275.544,283.393,277.386,276.941z M305.503,276.821c-7.765,0.04-15.543,0.093-23.308,0.119h-0.556 c-1.828,6.426-3.75,12.826-5.764,19.2c1.524-0.013,3.021-0.04,4.545-0.066c5.83-0.066,11.687-0.239,17.517-0.57 c1.815-4.24,3.564-8.507,5.274-12.787C304.006,280.77,304.734,278.796,305.503,276.821z M313.281,255.846 c-7.407,0.279-14.841,0.318-22.261,0.159c-1.259-0.027-2.518-0.08-3.776-0.119c-1.378,5.525-2.836,11.011-4.346,16.497 c8.123-0.027,16.245-0.067,24.368-0.106C309.332,266.817,311.36,261.345,313.281,255.846z M322.079,228.895 c-9.646,0.543-19.306,0.835-28.966,0.927c-0.901,4.452-1.842,8.904-2.849,13.33c-0.623,2.769-1.299,5.512-1.961,8.255 c8.851,0.265,17.702,0.278,26.514-0.093C317.362,243.881,319.8,236.408,322.079,228.895z M208.81,181.587 c-1.399,0.006-2.798,0.012-4.198,0.018c0.054,4,0.094,8.002,0.121,12.003c-2.38,0.053-4.762,0.119-7.143,0.185 c-0.073,1.002-0.144,2.005-0.194,3.008c0.16,0.512,0.336,1.019,0.516,1.524c2.286-0.066,4.573-0.132,6.86-0.186 c0.013,3.956,0.006,7.912-0.016,11.869c1.252,1.187,2.645,2.048,4.156,2.304c0.025-4.753,0.037-9.505,0.022-14.252 c2.915-0.066,5.83-0.146,8.758-0.172c0.276-0.003,0.552-0.004,0.828-0.007c0.012-0.445,0.018-0.881,0.013-1.29 c-0.014-1.079-0.111-2.158-0.255-3.231c-3.125,0.038-6.25,0.084-9.372,0.142C208.887,189.531,208.856,185.559,208.81,181.587z M375.32,146.358c0.053-0.358,0.106-0.729,0.146-1.1c0.04-0.358,0.079-0.702,0.119-1.06c0.026-0.265,0.053-0.53,0.08-0.808 c0,0-0.001,0-0.001,0C375.561,144.393,375.46,145.39,375.32,146.358z M9.356,127.688c3.206-4.938,6.545-9.791,10.044-14.522 c-1.603,0.146-3.22,0.358-4.783,0.676c-3.194,4.435-6.258,8.963-9.208,13.561C6.724,127.498,8.04,127.593,9.356,127.688z M21.825,128.569c3.886-5.461,7.878-10.847,12.005-16.146c-1.524,0.04-3.048,0.093-4.585,0.159 c-3.942,5.151-7.771,10.396-11.503,15.71C19.103,128.388,20.464,128.476,21.825,128.569z M38.59,129.684 c3.876-5.677,7.757-11.355,11.63-17.022c-1.378-0.066-2.756-0.119-4.134-0.159l-11.549,16.925 C35.888,129.516,37.24,129.597,38.59,129.684z M57.223,130.83c3.627-5.664,7.254-11.329,10.886-16.989 c-1.312-0.119-2.624-0.212-3.935-0.318c-3.641,5.695-7.289,11.385-10.933,17.074C54.568,130.677,55.895,130.752,57.223,130.83z M98.836,115.988c-3.86,5.498-7.711,11.005-11.569,16.505c1.374,0.07,2.749,0.131,4.124,0.2c3.855-5.499,7.714-11,11.565-16.506 C101.579,116.133,100.214,116.067,98.836,115.988z M115.77,116.69c-4.407,5.514-8.814,11.029-13.221,16.543 c1.446,0.068,2.891,0.141,4.337,0.207l13.27-16.604C118.686,116.796,117.228,116.743,115.77,116.69z M129.246,117.074 c-4.184,5.596-8.358,11.193-12.532,16.79c1.416,0.061,2.831,0.124,4.247,0.183c4.198-5.627,8.398-11.253,12.592-16.88 C132.121,117.14,130.69,117.114,129.246,117.074z M144.457,117.392c-4.589,5.687-9.175,11.37-13.756,17.049 c1.465,0.057,2.93,0.111,4.395,0.166c4.608-5.711,9.214-11.42,13.826-17.135C147.439,117.445,145.941,117.419,144.457,117.392z M158.821,117.657c-0.013,0-0.013,0-0.027,0c-4.251,5.787-8.501,11.573-12.742,17.36c1.414,0.049,2.828,0.09,4.242,0.138 c4.264-5.81,8.524-11.615,12.78-17.418C161.657,117.71,160.239,117.684,158.821,117.657z M174.258,117.936 c-3.779,5.876-7.57,11.752-11.361,17.628c1.357,0.041,2.714,0.081,4.071,0.12c3.796-5.894,7.592-11.792,11.398-17.683 C177.001,117.989,175.623,117.962,174.258,117.936z M186.938,118.148c-4.166,5.909-8.321,11.82-12.486,17.74 c1.402,0.038,2.805,0.078,4.207,0.114c4.173-5.925,8.346-11.855,12.519-17.788C189.761,118.187,188.356,118.174,186.938,118.148z M198.599,118.32c-4.04,6.249-8.523,12.191-13.345,17.855c1.5,0.036,3.001,0.063,4.501,0.098c4.678-5.699,9.01-11.674,12.938-17.914 C201.328,118.347,199.963,118.333,198.599,118.32z M214.857,118.479l-13.292,18.052c1.429,0.028,2.858,0.055,4.288,0.082 l13.337-18.107C217.746,118.505,216.301,118.492,214.857,118.479z M233.209,118.558c-4.28,6.364-8.929,12.467-13.931,18.275 c1.3,0.019,2.6,0.046,3.9,0.064c0.218,0.003,0.436,0.004,0.653,0.007c4.869-5.841,9.396-11.959,13.538-18.346H233.209z M251.07,118.519c-4.665,6.41-9.673,12.58-14.947,18.522c1.554,0.016,3.108,0.038,4.663,0.052 c5.159-5.965,10.045-12.161,14.617-18.587C253.959,118.519,252.515,118.519,251.07,118.519z M269.568,118.452 c-5.667,6.236-11.333,12.475-17,18.718c1.581,0.009,3.162,0.021,4.742,0.028c5.681-6.253,11.361-12.503,17.042-18.76 C272.748,118.439,271.158,118.452,269.568,118.452z M287.138,118.412c-5.939,6.284-11.887,12.548-17.829,18.818 c1.624,0.002,3.247,0.003,4.87,0.003c5.943-6.277,11.888-12.549,17.822-18.834C290.384,118.399,288.755,118.399,287.138,118.412z M309.45,137.062c1.501-0.014,3.003-0.027,4.504-0.044c5.166-6.442,10.659-12.617,16.474-18.473 c-1.63-0.013-3.273-0.013-4.903-0.013C319.829,124.421,314.487,130.619,309.45,137.062z M327.393,136.845 c4.872-6.056,9.743-12.112,14.615-18.167c-1.484-0.04-2.981-0.053-4.466-0.067l-14.723,18.302 C324.344,136.894,325.869,136.868,327.393,136.845z M340.716,136.635c4.538-5.937,9.073-11.871,13.615-17.812 c-1.471-0.04-2.928-0.053-4.386-0.066c-4.569,5.99-9.146,11.969-13.717,17.956C337.724,136.688,339.22,136.662,340.716,136.635z M352.735,136.392c3.988-5.394,7.978-10.788,11.958-16.177c-0.702-0.199-1.405-0.371-2.067-0.504 c-0.557-0.119-1.113-0.225-1.683-0.305c-4.211,5.695-8.418,11.384-12.623,17.075C349.791,136.452,351.263,136.424,352.735,136.392z M364.108,136.129c3.036-3.908,6.075-7.818,9.105-11.727c-0.875-0.808-1.829-1.497-2.875-2.041 c-3.586,4.628-7.183,9.256-10.779,13.884C361.075,136.21,362.591,136.166,364.108,136.129z M148.707,284.276 c-0.602,0.033-1.204,0.067-1.806,0.1l-0.262,0.483c-0.486,0.629,0.42,1.455,1.268,1.22 C148.755,285.844,149.124,284.879,148.707,284.276z M155.784,277.545l-0.018-0.377c-0.023-0.009-0.046-0.019-0.069-0.028 L155.784,277.545z M155.397,256.633c-0.385,0.626,0.207,1.44,1.034,1.421l-0.49-0.473c0.278,0.141,0.557,0.283,0.835,0.426 c0.807-0.206,1.21-1.156,0.704-1.66C156.974,255.842,155.782,256.006,155.397,256.633z M149.287,290.372 c0.682,0.042,1.269-0.686,1.015-1.194c-0.254-0.509-1.133-0.657-1.743-0.353s-0.909,0.951-0.792,1.501 c0.762,0.135,1.571,0.137,2.36,0.007L149.287,290.372z M108.318,257.899c0.284,0.152,0.647,0.078,0.851-0.173 c0.204-0.251,0.232-0.66,0.066-0.958c-0.17-0.054-0.352-0.053-0.517,0.003l0.042,0.077 C108.562,257.167,108.412,257.523,108.318,257.899z M160.137,287.631c-0.786-0.281-1.74,0.456-1.667,1.287l0.079,0.34 c0.299,0.779,1.48,1.022,2.063,0.425C161.194,289.086,160.923,287.912,160.137,287.631z M158.351,290.35 c-0.209,0.643-0.258,1.31-0.145,1.947l0.001-0.688c-0.09,0.567,0.763,0.975,1.398,0.713c0.635-0.263,0.867-1.003,0.531-1.475 C159.8,290.376,159.028,290.197,158.351,290.35z M149.576,260.114c-0.546-0.01-1.081,0.491-1.003,0.886 c0.079,0.395,0.648,0.61,1.206,0.524c0.558-0.086,1.07-0.42,1.375-0.805l-1.035-0.027L149.576,260.114z M149.988,292.257 c-0.188,0.19-0.245,0.524-0.132,0.782c0.136,0.058,0.285,0.072,0.426,0.04l-0.028-0.067c0.188-0.247,0.341-0.528,0.449-0.83 C150.481,292.035,150.176,292.067,149.988,292.257z M158.452,280.153c-0.371-0.321-0.965-0.45-1.505-0.408l0.502,0.715 c-0.099,0.246-0.198,0.492-0.297,0.738c0.269,0.374,1.042,0.412,1.395,0.105C158.899,280.996,158.823,280.473,158.452,280.153z M152.806,277.327l0.02,0.086c-0.273,0.257-0.51,0.562-0.699,0.9c0.235,0.221,0.605,0.244,0.867,0.054 c0.262-0.19,0.396-0.577,0.313-0.907C153.156,277.363,152.98,277.317,152.806,277.327z M155.398,262.388 c-0.155,0.081-0.278,0.197-0.351,0.331l0.084,0.012c0.096,0.289,0.25,0.566,0.456,0.819c0.304-0.104,0.498-0.372,0.456-0.63 C156.001,262.661,155.726,262.435,155.398,262.388z M139.259,270.108l-0.365-0.048c-0.015,0.017-0.031,0.033-0.046,0.051 L139.259,270.108z M134.684,292.097l0.924-0.455c0.29,0.067,0.58,0.135,0.87,0.202c0.484-0.243,0.611-0.884,0.273-1.157 c-0.338-0.273-0.983-0.18-1.413,0.145C134.909,291.156,134.689,291.653,134.684,292.097z M144.369,254.755 c-0.332,0.844,0.715,1.71,1.755,1.496l-0.737-0.283c0.992,0.23,2.045-0.962,1.489-1.661 C146.32,253.607,144.701,253.911,144.369,254.755z M126.5,284.415c-0.723,0.501-0.598,1.786,0.183,2.188l-0.287-0.639 c0.479,0.738,1.866,0.354,1.946-0.522C128.421,284.566,127.223,283.914,126.5,284.415z M165.445,270.91 c0.167-0.059,0.311-0.158,0.409-0.282l-0.079-0.024c-0.034-0.302-0.128-0.601-0.277-0.881c-0.317,0.062-0.56,0.304-0.572,0.568 C164.915,270.554,165.136,270.818,165.445,270.91z M132.924,277.394c-0.32,0.05-0.625,0.29-0.716,0.563 c0.082,0.123,0.211,0.218,0.367,0.271l0.025-0.07c0.362-0.095,0.717-0.239,1.046-0.424 C133.551,277.49,133.243,277.345,132.924,277.394z M141.398,265.812c0.476,0.147,1.01-0.229,1.206-0.759 c0.196-0.53,0.094-1.156-0.172-1.631l-0.569,0.882c-0.307,0.052-0.613,0.104-0.919,0.156 C140.648,264.927,140.922,265.665,141.398,265.812z M143.057,251.644c-0.438,0.017-0.875,0.033-1.312,0.05l-0.592,0.997 c0.181,0.546,1.085,0.79,1.692,0.456S143.566,252.011,143.057,251.644z M140.786,267.068l-0.126,1.317 c0.38,0.222,0.76,0.445,1.139,0.667c0.696-0.141,1.124-1.026,0.801-1.659C142.277,266.76,141.309,266.587,140.786,267.068z M140.624,268.761c0.012-0.125,0.024-0.25,0.036-0.376c-0.021-0.012-0.043-0.025-0.064-0.038L140.624,268.761z M118.006,228.594 l0.336-0.132c0.825,0.415,1.943-0.423,1.815-1.337c-0.128-0.914-1.372-1.428-2.132-0.905 C117.265,226.744,117.268,228.039,118.006,228.594z M216.005,255.17c-0.263,0.303-0.526,0.606-0.789,0.91 c0.058,0.572,0.882,0.947,1.543,0.702c0.661-0.245,0.944-1.029,0.53-1.469L216.005,255.17z M215.638,255.13 c0.122,0.013,0.245,0.027,0.367,0.041c0.015-0.017,0.03-0.034,0.045-0.051L215.638,255.13z M219.065,256.854 c0.5,0.175,1.129,0.111,1.628-0.092l-0.803-0.49c-0.016-0.251-0.032-0.503-0.048-0.754c-0.426-0.255-1.185-0.053-1.385,0.331 C218.256,256.232,218.565,256.678,219.065,256.854z M236.477,267.76c0.506-0.042,0.93-0.547,0.802-0.897 c-0.128-0.35-0.684-0.491-1.188-0.361c-0.504,0.13-0.93,0.481-1.158,0.859l0.96-0.073L236.477,267.76z M222.423,256.349 c0.601-0.035,1.203-0.216,1.711-0.513l-0.194-0.146c0.311-0.715,0.486-1.454,0.592-2.195c0.19-0.072,0.381-0.145,0.571-0.217 l0.034-0.514c0.183-0.714-1.058-1.181-1.766-0.711c-0.388,0.258-0.519,0.665-0.466,1.052c-0.396,0.219-0.744,0.501-0.957,0.852 C221.455,254.766,221.657,255.786,222.423,256.349z M232.276,281.194l-0.037,0.308c0.021,0.009,0.042,0.018,0.064,0.027 L232.276,281.194z M185.617,266.286l-0.833,0.143c0.69-0.044,1.144-0.827,0.796-1.292c-0.348-0.466-1.255-0.501-1.81-0.128 c-0.555,0.373-0.735,1.042-0.517,1.564C184.041,266.61,184.851,266.512,185.617,266.286z M221.864,284.356l0.472-0.553 c-1.369,0.197-2.296,1.683-1.642,2.631c0.653,0.948,2.615,0.962,3.474,0.025c0.545-0.595,0.585-1.467,0.039-1.99 C223.661,283.946,222.559,283.876,221.864,284.356z M240.07,257.574c0.755-0.2,1.07-1.091,0.56-1.53l-1.851,0.492 C238.508,257.135,239.316,257.774,240.07,257.574z M228.722,288.946c0.408-0.256,0.444-0.789,0.151-1.162s-0.842-0.587-1.375-0.622 l0.336,0.786c-0.148,0.232-0.296,0.463-0.444,0.695C227.571,289.054,228.314,289.203,228.722,288.946z M232.111,282.583 c0.043-0.36,0.086-0.72,0.128-1.08c-0.377-0.156-0.753-0.312-1.129-0.469c-0.692,0.159-1.118,0.907-0.798,1.401 C230.631,282.929,231.592,283.007,232.111,282.583z M183.502,281.229c0.026-0.102,0.053-0.204,0.079-0.306 c-0.02-0.011-0.039-0.022-0.059-0.032L183.502,281.229z M194.775,270.491c0.368-0.633-0.248-1.433-1.076-1.398l0.504,0.463 c-0.283-0.136-0.566-0.273-0.848-0.409c-0.803,0.221-1.179,1.177-0.658,1.67C193.218,271.311,194.407,271.125,194.775,270.491z M116.705,225.769c0.348-0.271,0.697-0.541,1.045-0.811l-2.052-0.731C115.458,224.896,115.996,225.719,116.705,225.769z M94.691,289.27c0.113-0.126,0.226-0.253,0.339-0.379l-0.214-0.476l-1.694-0.074c-0.179,0.357-0.091,0.768,0.131,1.1 c-0.204,0.325-0.341,0.694-0.342,1.078c-0.003,0.891,0.629,1.749,1.481,2.01c0.447-0.225,0.828-0.582,1.081-1.014l-0.218-0.071 C95.164,290.698,94.954,289.974,94.691,289.27z M113.874,233.106c0.361-0.464,0.151-1.25-0.392-1.473 c-0.544-0.222-1.244,0.191-1.312,0.775c0.21,0.298,0.421,0.596,0.631,0.894C113.158,233.236,113.516,233.171,113.874,233.106z M161.445,284.73c-0.292,0.309-0.323,0.768-0.042,1.046c0.281,0.279,0.859,0.324,1.228,0.077l-0.253,0.288 c0.72-0.094,1.222-0.869,0.889-1.372C162.934,284.264,161.905,284.243,161.445,284.73z M259.4,246.23 c-0.629,0.069-1.102,0.665-1.001,1.167c0.102,0.503,0.677,0.858,1.299,0.896c0.417-0.514,0.711-1.091,0.858-1.684l-0.261,0.608 C260.586,246.74,260.029,246.161,259.4,246.23z M183.859,279.852c-0.092,0.356-0.185,0.713-0.277,1.07 c0.348,0.192,0.697,0.385,1.045,0.578c0.703-0.094,1.227-0.804,0.982-1.33C185.363,279.645,184.43,279.474,183.859,279.852z M250.462,267.656c0.606-0.198,1.003-0.752,1.009-1.274c-0.654-0.227-1.377-0.339-2.108-0.326l0.758,0.078 c-0.601-0.131-1.272,0.459-1.146,0.961C249.1,267.598,249.856,267.854,250.462,267.656z M164.293,280.541 c-0.808,0.23-1.223,1.167-0.782,1.711l0.324-0.03c0.559,0.46,1.769,0.072,1.957-0.614 C165.979,280.923,165.1,280.309,164.293,280.541z M112.981,233.557c-0.06-0.085-0.12-0.171-0.18-0.256l-0.061,0.011L112.981,233.557 z M160.623,241.287c0.293-0.126,0.502-0.426,0.489-0.702c-0.126-0.094-0.287-0.149-0.459-0.158l0.002,0.071 c-0.318,0.18-0.611,0.402-0.864,0.657C159.975,241.357,160.33,241.414,160.623,241.287z M39.685,261.619 c-0.171,0.321-0.342,0.642-0.513,0.963c0.139,0.571,0.885,0.895,1.397,0.607c0.512-0.288,0.623-1.093,0.208-1.509 C40.413,261.66,40.049,261.64,39.685,261.619z M39.372,261.602l0.312,0.018c0.01-0.018,0.019-0.036,0.029-0.054L39.372,261.602z M45.955,264.165c-0.389,0.26-0.624,0.728-0.677,1.176l0.809-0.314c0.23,0.114,0.461,0.228,0.691,0.342 c0.424-0.169,0.599-0.796,0.352-1.126C46.884,263.913,46.344,263.905,45.955,264.165z M37.36,234.096 c0.57,0.075,1.141-0.302,1.389-0.821c-0.41-0.521-0.927-0.957-1.509-1.271l0.561,0.417c-0.413-0.4-1.216-0.111-1.352,0.447 C36.313,233.427,36.79,234.021,37.36,234.096z M44.455,268.151c-0.587-0.43-1.471-0.427-2.02,0.052 c-0.548,0.478-0.656,1.402-0.191,1.962l-0.546-0.371c0.156,1.135,1.635,1.847,2.619,1.26 C45.3,270.468,45.378,268.829,44.455,268.151z M51.441,246.52c0.826-0.336,1.379-1.245,1.298-2.133 c-0.081-0.887-0.791-1.681-1.664-1.861c-0.424,0.266-0.769,0.657-0.981,1.111l0.224,0.05 C50.539,244.682,50.92,245.643,51.441,246.52z M46.761,239.079c0.372,0.09,0.8-0.146,0.899-0.515l0.007,0.347 c0.439-0.412,0.294-1.262-0.257-1.506c-0.551-0.243-1.276,0.223-1.286,0.824C46.119,238.612,46.39,238.99,46.761,239.079z M178.276,259.642c0.558-0.22,1.049-0.57,1.396-0.995l-0.253-0.071c-0.047-1-0.29-1.98-0.717-2.892 c-1.047,0.249-1.896,1.088-1.991,1.968C176.616,258.532,177.283,259.38,178.276,259.642z M172.329,270.283 c0.678-0.248,0.918-1.089,0.425-1.489c-0.313-0.253-0.862-0.3-1.257-0.083c-0.396,0.216-0.57,0.687-0.348,1l-0.295-0.221 C170.817,270.084,171.65,270.532,172.329,270.283z M55.731,279.348c-0.303-0.504-1.111-0.591-1.515-0.164 c-0.01,0.364-0.019,0.729-0.029,1.094c0.326,0.162,0.652,0.323,0.978,0.485C55.732,280.607,56.034,279.852,55.731,279.348z M50.922,231.772l-0.037-0.062c0.151-0.271,0.261-0.571,0.325-0.885c-0.24-0.115-0.538-0.04-0.697,0.176 c-0.159,0.216-0.167,0.554-0.018,0.794C50.637,231.832,50.788,231.824,50.922,231.772z M55.891,230.222 c0.234,0.13,0.57,0.094,0.789-0.084c0.02-0.146-0.007-0.294-0.076-0.421l-0.057,0.045c-0.289-0.115-0.6-0.186-0.919-0.209 C55.544,229.807,55.657,230.092,55.891,230.222z M151.671,231.684c0.382,0.251,0.996,0.037,1.125-0.354 c0.129-0.391-0.173-0.838-0.609-1.008c-0.435-0.171-0.954-0.097-1.352,0.115l0.72,0.485 C151.595,231.176,151.633,231.43,151.671,231.684z M138.166,231.978c-0.332-0.148-0.774-0.003-0.93,0.326l0.053-0.326 c-0.482,0.309-0.494,1.13-0.021,1.453c0.473,0.323,1.233,0.013,1.346-0.548C138.686,232.527,138.499,232.126,138.166,231.978z M156.93,240.901c0.128-0.045,0.234-0.13,0.328-0.228c0.118,0.242,0.242,0.481,0.398,0.7l-0.32-0.621 c0.194,0.541,1.043,0.635,1.411,0.194c0.368-0.442,0.202-1.185-0.277-1.504c-0.147-0.098-0.314-0.145-0.486-0.17 c-0.001-0.018,0.006-0.034,0.004-0.052c-0.046-0.38-0.415-0.699-0.796-0.663l0.323-0.128c-0.539-0.268-1.285,0.164-1.322,0.765 c-0.001,0.025,0.015,0.047,0.016,0.072c-0.271,0.147-0.48,0.407-0.499,0.717C155.674,240.584,156.363,241.102,156.93,240.901z M143.674,227.188c0.498-0.312,0.572-1.122,0.138-1.518l-1.499,0.276c0.095,0.352,0.19,0.704,0.285,1.056 C142.957,227.064,143.316,227.126,143.674,227.188z M142.68,227.304c-0.027-0.101-0.054-0.201-0.081-0.302l-0.061-0.01 L142.68,227.304z M161.531,228.008l0.287-0.124c0-0.021,0.001-0.041,0.001-0.062L161.531,228.008z M73.506,252.844 c-0.428-0.154-0.888,0.066-1.164,0.419c-0.327-0.471-0.995-0.747-1.522-0.47c-0.778,0.41-0.81,1.7-0.083,2.195l-0.208-0.669 c0.338,0.691,1.471,0.615,1.872,0.008l1.156,0.471l0.117-0.023C74.377,254.371,74.267,253.119,73.506,252.844z M122.491,262.253 l-0.023-0.228c0.683-0.408,1.295-0.922,1.858-1.485c0.2,0.32,0.443,0.612,0.722,0.865c0.354,0.323,0.807,0.594,1.283,0.542 c0.802-0.089,1.229-1.172,0.818-1.866c-0.411-0.694-1.395-0.902-2.136-0.586l-0.551-0.719c-0.189,0.237-0.379,0.473-0.568,0.71 c-0.494-0.17-1.041-0.188-1.521,0.021c-0.817,0.356-1.348,1.279-1.245,2.164C121.514,261.99,121.994,262.195,122.491,262.253z M112.567,251.826c0.108-0.101,0.181-0.232,0.208-0.374l-0.073-0.001c-0.15-0.272-0.347-0.524-0.579-0.744 c-0.225,0.143-0.318,0.435-0.22,0.684C112.002,251.64,112.285,251.825,112.567,251.826z M119.362,265.692l-0.154-0.383 c0.822-0.107,1.152-1.39,0.483-1.879c-0.669-0.49-1.792,0.21-1.647,1.027C118.156,265.076,118.778,265.456,119.362,265.692z M54.188,280.278l-0.055-0.027l0.047,0.34C54.182,280.486,54.185,280.382,54.188,280.278z M95.404,257.39 c0.323-0.633-0.106-1.518-0.802-1.658c-0.697-0.14-1.434,0.511-1.381,1.219c0.318,0.306,0.636,0.612,0.953,0.917 C94.585,257.709,94.994,257.549,95.404,257.39z M94.447,258.13l-0.272-0.262c-0.023,0.009-0.046,0.018-0.069,0.027L94.447,258.13z M102.107,266.527c-0.111-0.577-0.84-0.937-1.366-0.675l-0.403,1.017c0.25,0.264,0.501,0.527,0.752,0.791 C101.675,267.71,102.218,267.104,102.107,266.527z M77.279,224.814c-0.559-0.134-1.166,0.181-1.468,0.67 c0.353,0.561,0.821,1.048,1.368,1.423l-0.514-0.474c0.368,0.441,1.198,0.238,1.391-0.303 C78.25,225.588,77.838,224.948,77.279,224.814z M100.295,266.825l-0.073,0.335l0.115-0.291 C100.323,266.855,100.309,266.84,100.295,266.825z M83.548,265.362c-0.211-0.549-0.992-0.775-1.464-0.424 c-0.073,0.357-0.146,0.715-0.218,1.073l0.879,0.647C83.33,266.602,83.759,265.911,83.548,265.362z M77.546,264.742l0.723-0.269 c0.168-0.425-0.168-0.982-0.578-1.029c-0.409-0.046-0.785,0.342-0.862,0.803s0.101,0.954,0.391,1.299L77.546,264.742z M110.007,241.171c0.555,0.141,1.162-0.411,1.075-0.977c-0.056-0.36-0.369-0.671-0.732-0.696c-0.363-0.025-0.728,0.263-0.761,0.626 l-0.062-0.325C109.181,240.256,109.452,241.03,110.007,241.171z M82.803,254.126c0.564,0.114,1.139-0.386,1.191-0.959 c0.052-0.572-0.347-1.128-0.875-1.355c-0.504,0.429-0.919,0.964-1.211,1.559l0.395-0.577 C81.919,253.222,82.239,254.013,82.803,254.126z M92.708,261.337c0.175-0.202,0.21-0.539,0.08-0.789 c-0.139-0.049-0.289-0.054-0.428-0.012l0.032,0.065c-0.172,0.259-0.305,0.549-0.393,0.856 C92.231,261.59,92.533,261.539,92.708,261.337z M74.72,242.699c-0.435,0.263-0.871,0.526-1.306,0.789l-0.051,0.108 c-0.097,0.803,0.973,1.464,1.647,1.018S75.497,242.925,74.72,242.699z M87.756,228.952c0.569-0.411,0.469-1.407-0.155-1.716 c-0.625-0.309-1.494,0.157-1.603,0.838l0.209,0.172C86.223,228.933,87.187,229.363,87.756,228.952z M90.256,243.255l0.27-0.239 c0.917,0.105,1.679-1.066,1.244-1.88c-0.435-0.814-1.779-0.87-2.313-0.116C88.923,241.772,89.372,242.987,90.256,243.255z M73.28,234.381c-0.1-0.453-0.294-0.886-0.62-1.219c-0.754-0.771-2.024-0.973-2.98-0.476c-0.195,0.574-0.22,1.203-0.072,1.79 l0.248-0.124c0.713,0.564,1.507,1.01,2.331,1.394l0.029,0.615l0.587,0.229l1.522-1.373C74.177,234.758,73.753,234.48,73.28,234.381z M111.823,254.968c0.793-0.243,0.903-1.563,0.161-1.934c-0.563-0.282-1.24-0.01-1.778,0.317l0.399,0.106 C110.199,254.181,111.03,255.212,111.823,254.968z M181.093,251.658l-1.2-1.09c-1.029-0.127-1.908,1.15-1.247,1.781 C179.306,252.981,180.885,252.519,181.093,251.658z M107.269,236.239c0.49,0.3,1.202,0.029,1.448-0.491 c0.246-0.52,0.062-1.179-0.355-1.574c-0.621,0.23-1.194,0.589-1.673,1.047l0.569-0.407 C106.75,235.085,106.778,235.939,107.269,236.239z M72.053,229.901c-0.392,0.163-0.782,0.325-1.172,0.487 c0.26,0.071,0.521,0.142,0.781,0.213C71.895,230.45,72.026,230.178,72.053,229.901z M70.383,230.596 c-0.019,0.008-0.037,0.016-0.056,0.023c0.146-0.155,0.3-0.304,0.424-0.478l-0.485,0.503c0.45-0.358,0.266-1.192-0.271-1.397 c-0.537-0.206-1.187,0.191-1.334,0.747c-0.147,0.556,0.154,1.17,0.636,1.482c0.375-0.224,0.703-0.514,1.005-0.829L70.383,230.596z M63.757,232.087l0.343-0.052c-0.464-0.383-1.289-0.13-1.46,0.447c-0.171,0.577,0.383,1.237,0.981,1.17 c0.38-0.043,0.72-0.36,0.761-0.74C64.423,232.532,64.135,232.137,63.757,232.087z M65.348,226.778 c-0.344,0.365-0.689,0.729-1.033,1.094l0.201,0.481c0.173,0.709,1.347,0.764,1.691,0.12 C66.551,227.83,66.056,226.957,65.348,226.778z" fill="#F99E45"/></g></svg>