<?xml version="1.0" encoding="UTF-8" standalone="no"?><svg xmlns="http://www.w3.org/2000/svg" fill="#ffffff" height="1524.5pt" version="1.1" viewBox="0 0 2663.97 1524.54" width="2664pt">
 <g id="change1_1">
  <path d="m2483.2 740.29c145.2 127.06 239.6 364.41 138.8 555.11-181.8 343.7-803 276.4-804.9-166.6h-985.21c-56.58 101-60.81 193.2-124.9 263.7-376.63 414.2-1004.6-246.9-541.23-596.75-53.58-106.1-131.51-129.09-152.62-222.02-128.75-566.48 730.22-709.44 777.08-166.52h999.18c64.6-83.35 38.4-148.17 83.3-222.03 171.4-282.95 665.8-231 763.2 83.29 53.2 171.82-32.3 371.15-152.7 471.82" fill="inherit" fill-rule="evenodd"/>
 </g>
</svg>