<?xml version="1.0" encoding="UTF-8"?><svg xmlns="http://www.w3.org/2000/svg" xmlns:xlink="http://www.w3.org/1999/xlink" height="365.0" preserveAspectRatio="xMidYMid meet" version="1.0" viewBox="14.7 17.8 370.8 365.0" width="370.8" zoomAndPan="magnify"><g id="change1_1"><ellipse cx="200.1" cy="200.3" fill="#FFD773" rx="96.3" ry="94.8"/></g><g id="change2_1"><path d="M200.1,82c-2.8,0-5-2.2-5-5V22.8c0-2.8,2.2-5,5-5s5,2.2,5,5V77C205.1,79.7,202.8,82,200.1,82z M205.1,377.8 v-54.2c0-2.8-2.2-5-5-5s-5,2.2-5,5v54.2c0,2.8,2.2,5,5,5S205.1,380.6,205.1,377.8z M79.7,200.3c0-2.8-2.2-5-5-5h-55 c-2.8,0-5,2.2-5,5s2.2,5,5,5h55C77.5,205.3,79.7,203.1,79.7,200.3z M385.5,200.3c0-2.8-2.2-5-5-5h-55c-2.8,0-5,2.2-5,5s2.2,5,5,5h55 C383.3,205.3,385.5,203.1,385.5,200.3z M115,116.6c1.9-2,1.9-5.1-0.1-7.1L76,71.2c-2-1.9-5.1-1.9-7.1,0.1c-1.9,2-1.9,5.1,0.1,7.1 l38.9,38.3c1,1,2.2,1.4,3.5,1.4C112.7,118.1,114,117.6,115,116.6z M331.2,329.4c1.9-2,1.9-5.1-0.1-7.1L292.2,284 c-2-1.9-5.1-1.9-7.1,0.1c-1.9,2-1.9,5.1,0.1,7.1l38.9,38.3c1,1,2.2,1.4,3.5,1.4C328.9,330.9,330.2,330.4,331.2,329.4z M76,329.4 l38.9-38.3c2-1.9,2-5.1,0.1-7.1c-1.9-2-5.1-2-7.1-0.1L69,322.3c-2,1.9-2,5.1-0.1,7.1c1,1,2.3,1.5,3.6,1.5 C73.8,330.9,75,330.4,76,329.4z M292.2,116.7l38.9-38.3c2-1.9,2-5.1,0.1-7.1c-1.9-2-5.1-2-7.1-0.1l-38.9,38.3c-2,1.9-2,5.1-0.1,7.1 c1,1,2.3,1.5,3.6,1.5C290,118.1,291.3,117.6,292.2,116.7z M153.9,90.7c2.5-1.1,3.7-4,2.7-6.5l-9.8-23.3c-1.1-2.5-4-3.7-6.6-2.7 c-2.5,1.1-3.7,4-2.7,6.5l9.8,23.3c0.8,1.9,2.7,3.1,4.6,3.1C152.7,91.1,153.3,91,153.9,90.7z M259.9,342.5c2.5-1.1,3.7-4,2.7-6.5 l-9.8-23.3c-1.1-2.5-4-3.7-6.6-2.7c-2.5,1.1-3.7,4-2.7,6.5l9.8,23.3c0.8,1.9,2.7,3.1,4.6,3.1C258.6,342.9,259.3,342.7,259.9,342.5z M62.2,261.9l23.7-9.7c2.6-1,3.8-4,2.7-6.5c-1-2.6-4-3.8-6.5-2.7l-23.7,9.7c-2.6,1-3.8,4-2.7,6.5c0.8,1.9,2.7,3.1,4.6,3.1 C60.9,262.3,61.6,262.2,62.2,261.9z M318,157.7l23.7-9.7c2.6-1,3.8-4,2.7-6.5c-1-2.6-4-3.8-6.5-2.7l-23.7,9.7c-2.6,1-3.8,4-2.7,6.5 c0.8,1.9,2.7,3.1,4.6,3.1C316.8,158,317.4,157.9,318,157.7z M252.8,88.1l9.8-23.3c1.1-2.5-0.1-5.5-2.7-6.5c-2.6-1.1-5.5,0.1-6.6,2.7 l-9.8,23.3c-1.1,2.5,0.1,5.5,2.7,6.5c0.6,0.3,1.3,0.4,1.9,0.4C250.1,91.1,252,90,252.8,88.1z M146.8,339.8l9.8-23.3 c1.1-2.5-0.1-5.5-2.7-6.5c-2.6-1.1-5.5,0.1-6.6,2.7l-9.8,23.3c-1.1,2.5,0.1,5.5,2.7,6.5c0.6,0.3,1.3,0.4,1.9,0.4 C144.1,342.9,146,341.7,146.8,339.8z M88.7,154.9c1-2.6-0.2-5.5-2.7-6.5l-23.7-9.7c-2.6-1-5.5,0.2-6.5,2.7c-1,2.6,0.2,5.5,2.7,6.5 l23.7,9.7c0.6,0.3,1.3,0.4,1.9,0.4C86,158,87.9,156.8,88.7,154.9z M344.5,259.2c1-2.6-0.2-5.5-2.7-6.5L318,243 c-2.6-1-5.5,0.2-6.5,2.7c-1,2.6,0.2,5.5,2.7,6.5l23.7,9.7c0.6,0.3,1.3,0.4,1.9,0.4C341.8,262.3,343.7,261.1,344.5,259.2z" fill="#D1A12A"/></g></svg>